<svg xmlns="http://www.w3.org/2000/svg" data-name="Layer 1" width="649" height="599.75899" viewBox="0 0 649 599.75899" xmlns:xlink="http://www.w3.org/1999/xlink"><path d="M866.76981,680.2295h-1.91v-19.24a25.7398,25.7398,0,0,0-25.7398-25.7398H691.9045a25.7398,25.7398,0,0,0-25.7398,25.7398v19.24h-1.91a5.73988,5.73988,0,0,0-5.73988,5.7399v2.87006h96.76464a11.47974,11.47974,0,0,0,11.47974,11.47974h0A11.47974,11.47974,0,0,0,778.23884,688.8394h96.76464v-2.87006A5.73988,5.73988,0,0,0,866.76981,680.2295Z" transform="translate(-275.5 -150.12051)" fill="#3f3d56"/><path d="M866.76981,680.2295h-1.91v-19.24a25.7398,25.7398,0,0,0-25.7398-25.7398H691.9045a25.7398,25.7398,0,0,0-25.7398,25.7398v19.24h-1.91a5.73988,5.73988,0,0,0-5.73988,5.7399v2.87006h96.76464a11.47974,11.47974,0,0,0,11.47974,11.47974h0A11.47974,11.47974,0,0,0,778.23884,688.8394h96.76464v-2.87006A5.73988,5.73988,0,0,0,866.76981,680.2295Z" transform="translate(-275.5 -150.12051)" opacity="0.2"/><path d="M876.3969,686.95947H673.6031a4.41735,4.41735,0,0,1-4.41216-4.41216v-30.8853a4.41735,4.41735,0,0,1,4.41216-4.41215H876.3969a4.41735,4.41735,0,0,1,4.41216,4.41215v30.8853A4.41735,4.41735,0,0,1,876.3969,686.95947Z" transform="translate(-275.5 -150.12051)" fill="#3f3d56"/><path d="M849.92168,668.35444A11.03876,11.03876,0,0,1,838.90061,679.381l-136.40409.48358a11.03875,11.03875,0,0,1-11.09849-10.97638h0q-.00275-.079-.00275-.15808a11.03875,11.03875,0,0,1,11.03876-11.03875h136.48777A11.03875,11.03875,0,0,1,849.92168,668.35444Z" transform="translate(-275.5 -150.12051)" fill="#4169e1"/><path d="M745.4967,642.755a2.56336,2.56336,0,0,0,1.93883-4.21856,109.09879,109.09879,0,0,1-8.05258-7.59841c-10.247-10.72609-17.053-24.62692-17.63863-39.51164-.59353-15.024,5.28846-30.0342,14.36448-41.89093A79.17059,79.17059,0,0,1,769.487,528.85954c16.02407-6.88569,33.839-9.22825,51.19708-9.23229.93634,0,1.87289-.01324,2.80941-.01324a1.5009,1.5009,0,0,0,0-3c-1.14532,0-2.29064.01324-3.43586.02659-17.58868.32874-35.54559,2.88978-51.72245,9.87024a82.171,82.171,0,0,0-34.12354,28.3765c-9.49317,12.61118-15.5704,28.38977-14.9371,44.05967.31557,15.66989,7.53185,30.22505,18.18363,41.29749a107.33545,107.33545,0,0,0,8.36832,7.87525A2.52367,2.52367,0,0,0,745.4967,642.755Z" transform="translate(-275.5 -150.12051)" fill="#3f3d56"/><path d="M755.52826,489.403a2.5186,2.5186,0,0,0,1.92582-.8941c.71619-.78334,16.44067-18.47742,8.40758-42.69944-4.77966-14.39992-14.87122-24.34625-29.92427-29.52756l.18361-.88872a2.5237,2.5237,0,0,0-4.93-1.02051l-2.69117,12.99342a2.5237,2.5237,0,0,0,4.93,1.02051l.26795-1.29539c14.28157,4.95559,23.75354,14.212,28.24134,27.56379,7.23287,21.63842-6.8,37.44079-7.4834,38.20023a2.52652,2.52652,0,0,0,1.08254,4.34762Z" transform="translate(-275.5 -150.12051)" fill="#3f3d56"/><path d="M841.73084,520.18244c-12.62688-12.08314-29.77284-17.0298-46.13912-15.86938a79.20976,79.20976,0,0,0-44.23146,16.83972,78.96442,78.96442,0,0,0-27.92293,42.21932c-3.74,14.15746-3.38534,29.065-2.97786,43.69.36867,13.48926.74886,27.42483,5.30217,40.04854a59.10666,59.10666,0,0,0,1.33088,3.291,2.5235,2.5235,0,0,0,3.16977,1.552,2.55686,2.55686,0,0,0,1.51972-3.24067,54.58613,54.58613,0,0,1-1.22758-3.03421c-4.35573-12.00439-4.72946-25.77242-5.08884-38.95567-.377-13.82574-.72714-28.19058,2.814-41.72044a76.011,76.011,0,0,1,26.62988-40.246,76.19962,76.19962,0,0,1,42.39386-16.00258c15.69088-1.08717,32.0886,3.58144,44.05862,15.01842a2.5059,2.5059,0,1,0,3.47887-3.61062Z" transform="translate(-275.5 -150.12051)" fill="#3f3d56"/><path d="M825.48712,603.71109c-5.89226-1.76766-12.84178-1.4354-19.71048-1.09573-11.94577.59372-24.01922,1.19981-35.24521,5.41313-11.1687,4.188-21.13393,12.31964-26.21652,23.33243a42.03193,42.03193,0,0,0-2.69013,6.92705,2.58174,2.58174,0,0,0,1.79919,3.15129,2.5237,2.5237,0,0,0,3.15129-1.79919,35.4084,35.4084,0,0,1,2.35084-6.07171c4.68189-10.054,13.746-17.29161,23.94916-21.03208,10.73969-3.95144,22.27514-4.52969,33.72468-5.09323,6.16438-.30432,12.53755-.61932,18.0724,1.0053a2.52934,2.52934,0,0,0,3.18337-1.66133,2.507,2.507,0,0,0-1.66133-3.18337Z" transform="translate(-275.5 -150.12051)" fill="#3f3d56"/><path d="M796.97468,642.755a2.56336,2.56336,0,0,0,1.93883-4.21856,109.09879,109.09879,0,0,1-8.05258-7.59841c-10.247-10.72609-17.053-24.62692-17.63863-39.51164-.59353-15.024,5.28846-30.0342,14.36448-41.89093a79.17059,79.17059,0,0,1,33.37371-20.68494c16.02407-6.88569,33.839-9.22825,51.19708-9.23229.93634,0,1.87289-.01324,2.80941-.01324a1.5009,1.5009,0,0,0,0-3c-1.14532,0-2.29063.01324-3.43586.02659-17.58868.32874-35.54559,2.88978-51.72245,9.87024a82.17105,82.17105,0,0,0-34.12354,28.3765c-9.49317,12.61118-15.5704,28.38977-14.9371,44.05967.31558,15.66989,7.53185,30.22505,18.18363,41.29749a107.3359,107.3359,0,0,0,8.36832,7.87525A2.52367,2.52367,0,0,0,796.97468,642.755Z" transform="translate(-275.5 -150.12051)" fill="#3f3d56"/><path d="M874.54164,610.84557a35.4076,35.4076,0,0,1-6.55459,7.33411c-9.32374,8.5468-16.5662,8.49487-27.75609,9.20936-5.94151.38015-12.08573.77262-17.56461,3.0639a1.50043,1.50043,0,0,0,.98951,2.82859c5.05166-1.76691,10.76529-2.11952,16.33545-2.47289,11.41659-.72292,19.21528-.60959,29.30118-9.81524a38.41428,38.41428,0,0,0,7.13968-7.96a1.49984,1.49984,0,0,0-1.89053-2.18783Z" transform="translate(-275.5 -150.12051)" fill="#3f3d56"/><path d="M770.7,592.37949c0,30.34521-17.75664,40.93975-39.67,40.93975s-39.67-10.59454-39.67-40.93975,39.67-68.89214,39.67-68.89214S770.7,562.03428,770.7,592.37949Z" transform="translate(-275.5 -150.12051)" fill="#4169e1"/><path d="M728.60168,628.63772l14.44922-20.16693-14.47994,22.38023-.03836,2.31161c-1.00206-.02176-1.99236-.06955-2.97161-.13916l1.55267-29.95658-.01151-.23479.02664-.04536.14942-2.86219-14.52188-22.453,14.561,20.34765.03474.57255,1.17991-22.72747-12.44441-23.25406,12.59921,19.2969.12183-46.56645.00468-.15486v.15237l-.2079,36.71458,12.38037-14.58763-12.4091,17.74641-.32686,20.12632,11.56444-19.34165-11.591,22.3365-.18248,11.22421,16.80033-26.97373-16.83139,30.88972Z" transform="translate(-275.5 -150.12051)" fill="#3f3d56"/><path d="M858.5,649.87949h-142a1,1,0,0,1,0-2h142a1,1,0,0,1,0,2Z" transform="translate(-275.5 -150.12051)" fill="#ccc"/><path d="M719.1472,445.73747a11.62011,11.62011,0,0,0-12.92383-5.55811c-1.09912.28961-2.1709.65961-3.249.96665a10.32994,10.32994,0,0,1-10.15332-1.78137,10.91064,10.91064,0,0,1-3.13086-10.73,11.01285,11.01285,0,0,0-1.3291-9.05518,11.42291,11.42291,0,0,0-7.835-4.958,11.79148,11.79148,0,0,0-9.206,2.08618,16.57144,16.57144,0,0,0-4.76343,5.95509,45.66693,45.66693,0,0,0-2.65625,7.199,50.77935,50.77935,0,0,0-1.78955,16.08789,30.4056,30.4056,0,0,0,3.32324,12.70264,17.04264,17.04264,0,0,0,9.17676,8.45019,12.28584,12.28584,0,0,0,9.3584-.07324c-.09521-1.3335.82129-2.5835,1.95117-3.30518a11.85264,11.85264,0,0,1,4.02735-1.39886,22.36589,22.36589,0,0,1,9.32519.71142,8.17129,8.17129,0,0,0,4.28809-.15674c1.45117-.55908,2.52148-1.95215,2.52246-3.51807a4.84656,4.84656,0,0,1,5.44531,1.17334,7.86567,7.86567,0,0,1,1.74316,6.0708,3.00053,3.00053,0,0,0,.07715,1.63525,2.66578,2.66578,0,0,0,2.124.79443,8.3631,8.3631,0,0,0,3.61426-1.0542c3.53613-1.86475,5.73242-5.97461,5.38574-9.96582A11.52892,11.52892,0,0,0,719.1472,445.73747Z" transform="translate(-275.5 -150.12051)" fill="#2f2e41"/><path d="M671.25379,461.5865c.92505-3.05322,1.85084-6.19134,1.55635-9.38388-.5039-5.45751-4.40137-9.80664-8.81933-12.53467a41.649,41.649,0,0,0-11.90967-5.05859,33.71951,33.71951,0,0,0-12.20166-1.426c-6.39014.6543-12.72827,4.13721-15.97217,9.76221-3.38721,5.88428-2.9834,13.56932,1.02881,19.0044,3.706,5.01465,10.02881,7.67969,16.25,7.31641,5.04346-.31055,9.79785-2.63379,14.71924-3.64355a19.77329,19.77329,0,0,1,16.12744,3.56445A1.5,1.5,0,0,0,672.96,465.623a22.57566,22.57566,0,0,0-18.61181-3.82666c-4.77294.959-9.20507,3.20508-14.11181,3.50781-4.41357.2753-8.79931-.95312-12.17188-3.80078-3.4419-2.92871-5.50146-7.38965-5.43359-11.78808.06836-4.39551,2.68066-8.4878,6.12891-11.041a24.49448,24.49448,0,0,1,11.371-4.65137,30.63646,30.63646,0,0,1,11.0254,1.06641,38.344,38.344,0,0,1,10.95507,4.668c3.79737,2.36817,7.21387,5.85937,7.64551,10.36621.25537,2.65528-.55713,5.22558-1.39991,7.77246a1.5001,1.5001,0,0,0,2.84766.915Z" transform="translate(-275.5 -150.12051)" fill="#2f2e41"/><path d="M703.99743,536.01612a101.945,101.945,0,0,1-6.49,17.73c-.56006,1.23-1.16,2.45-1.79,3.65-.73.02-1.45.03-2.17.03q-3.435,0-6.82-.21c.13-.38.28-.79.43-1.21,2.18-6.29,6-16.63,9.29-25.35,6.29-16.63,11.19-29.51,11.19-29.51l15.6,10.37s-6.01,7.97-12.53,18.34A125.8728,125.8728,0,0,0,703.99743,536.01612Z" transform="translate(-275.5 -150.12051)" fill="#ffb6b6"/><path d="M737.12744,557.41615v.07a174.72852,174.72852,0,0,1-41.93,7.14q-3.435,0-6.82-.21c-2.25-.13-4.48-.34-6.69-.62a174.61575,174.61575,0,0,1-33.46-7.57,58.90722,58.90722,0,0,1,17.89-42.76c-.08,1.24-.15,1.9-.15,1.9l41.38-3.55Z" transform="translate(-275.5 -150.12051)" fill="#2f2e41"/><path d="M721.1894,489.19577a15.37868,15.37868,0,0,1-4.51807-2.57666,5.93326,5.93326,0,0,1-2.1709-4.65039c.11425-1.34668,1.21191-2.58691,2.56-2.6582a5.8749,5.8749,0,0,1-.1123,5.8374,11.51,11.51,0,0,1-3.01368,3.06738,1.5009,1.5009,0,0,0,1.75,2.43066,14.18148,14.18148,0,0,0,3.82721-3.89648,8.42037,8.42037,0,0,0,1.31641-6.541,4.69324,4.69324,0,0,0-1.7583-2.835c-2.18359-1.75488-5.80078-1.58594-7.32617.92481a5.59289,5.59289,0,0,0-.52246,4.19726,9.01775,9.01775,0,0,0,3.22754,5.05567,18.41863,18.41863,0,0,0,5.3291,3.08105,1.50077,1.50077,0,0,0,1.09229-2.7998Z" transform="translate(-275.5 -150.12051)" fill="#2f2e41"/><path d="M769.38452,537.12784c4.11133,1.41992,8.52344,3.11523,12.79,2.53711a9.0549,9.0549,0,0,0,5.65723-2.75977,2.62024,2.62024,0,0,0,.51562-3.08691c-.65332-1.20508-2.29688-1.38965-3.69336-1.45215a20.397,20.397,0,0,0-9.00293,1.60254,41.51164,41.51164,0,0,0-8.11035,4.87793,1.50068,1.50068,0,0,0,1.84375,2.35742c2.89649-1.82031,6.26856-3.07129,9.52344-4.21289,3.35937-1.17676,7.41406-1.82422,10.72949-.44043a1.64493,1.64493,0,0,1,.78516.56934c.21.37109-.09571.51855-.31836.69238a6.54681,6.54681,0,0,1-3.89746,1.39746c-3.67774.38574-7.4961-.83886-10.9873-2.06933-.43757-.15332-.85351.40722-.52734.81445a5.71,5.71,0,0,0,1.91308,1.69336,11.82872,11.82872,0,0,0,7.37989,1.48145,18.9409,18.9409,0,0,0,3.53321-.68653c-.27051.12989-.01758.02734.02343-.00586.145-.11621.29-.23144.42578-.35546.32813-.30079.63379-.62793.9707-.92774a1.4985,1.4985,0,0,0-1.06055-2.56152,19.425,19.425,0,0,0-7.00488.65332,37.12566,37.12566,0,0,0-7.10645,2.44824,1.50392,1.50392,0,0,0-.60937,2.03418Z" transform="translate(-275.5 -150.12051)" fill="#2f2e41"/><path d="M771.94958,490.30761c-.55176.10156-1.07617.291-1.60937.457-.64551.20312-1.2627.47754-1.88868.73242-1.27929.52051-2.55371,1.05176-3.80078,1.63574a68.55812,68.55812,0,0,0-7.20312,3.77734,1.50062,1.50062,0,0,0,.97558,2.6543,29.36566,29.36566,0,0,0,5.33887-2.46,67.20227,67.20227,0,0,0,7.96094-5.332,1.97639,1.97639,0,0,0,.3457-.26465c.01953-.01856.03223-.03906.05176-.05762.63867-.61816-.32129-1.579-.97656-.97949Z" transform="translate(-275.5 -150.12051)" fill="#3f3d56"/><path d="M764.67226,495.91517a13.65864,13.65864,0,0,0-4.125-.35254,1.75135,1.75135,0,0,0-1.58984,1.76562c.01562.57129.43554.88281.90332,1.14649a10.84772,10.84772,0,0,0,4.71093,1.65332,14.4324,14.4324,0,0,0,4.86133-.15137,1.86105,1.86105,0,0,0,1.41407-1.88379c-.05274-.582-.49219-.88965-.96289-1.17383a11.53777,11.53777,0,0,0-5.21192-1.0039Z" transform="translate(-275.5 -150.12051)" fill="#3f3d56"/><path d="M684.37646,557.39a175.21078,175.21078,0,0,1-33.25,7.03,106.58579,106.58579,0,0,1-6.31-16.76c-2.3-7.9-3.87-16.61-5.02-24.27-.09.04-.18.07-.27.11l-41.38-3.55s.12-1.12.32-3.15c.24.35.49.7.75,1.04a55.93043,55.93043,0,0,0,9.49,9.63A51.35938,51.35938,0,0,0,627.5272,537.9c4.52,1.3,9.24,1.85,13.88,2.64a82.91253,82.91253,0,0,1,20.58,6.03,74.10209,74.10209,0,0,1,11.66,6.39,79.1972,79.1972,0,0,1,10.73,8.33q-.02988-1.965.00049-3.93Z" transform="translate(-275.5 -150.12051)" fill="#ffb6b6"/><circle cx="400.5" cy="351.75898" r="12" fill="#fff"/><path d="M681.94958,485.30761c-.55176.10156-1.07617.291-1.60937.457-.64551.20312-1.2627.47754-1.88868.73242-1.27929.52051-2.55371,1.05176-3.80078,1.63574a68.55812,68.55812,0,0,0-7.20312,3.77734,1.50062,1.50062,0,0,0,.97558,2.6543,29.36566,29.36566,0,0,0,5.33887-2.46,67.20227,67.20227,0,0,0,7.96094-5.332,1.97639,1.97639,0,0,0,.3457-.26465c.01953-.01856.03223-.03906.05176-.05762.63867-.61816-.32129-1.579-.97656-.97949Z" transform="translate(-275.5 -150.12051)" fill="#3f3d56"/><path d="M674.67226,490.91517a13.65864,13.65864,0,0,0-4.125-.35254,1.75135,1.75135,0,0,0-1.58984,1.76562c.01562.57129.43554.88281.90332,1.14649a10.84772,10.84772,0,0,0,4.71093,1.65332,14.4324,14.4324,0,0,0,4.86133-.15137,1.86105,1.86105,0,0,0,1.41407-1.88379c-.05274-.582-.49219-.88965-.96289-1.17383a11.53777,11.53777,0,0,0-5.21192-1.0039Z" transform="translate(-275.5 -150.12051)" fill="#3f3d56"/><path d="M694.90692,492.19577a15.37868,15.37868,0,0,1-4.51807-2.57666,5.93326,5.93326,0,0,1-2.1709-4.65039c.11425-1.34668,1.21191-2.58691,2.56-2.6582a5.8749,5.8749,0,0,1-.1123,5.8374,11.51,11.51,0,0,1-3.01368,3.06738,1.5009,1.5009,0,0,0,1.75,2.43066,14.18148,14.18148,0,0,0,3.82721-3.89648,8.42037,8.42037,0,0,0,1.31641-6.541,4.69324,4.69324,0,0,0-1.7583-2.835c-2.18359-1.75488-5.80078-1.58594-7.32617.92481a5.59289,5.59289,0,0,0-.52246,4.19726,9.01775,9.01775,0,0,0,3.22754,5.05567,18.41863,18.41863,0,0,0,5.3291,3.08105,1.50077,1.50077,0,0,0,1.09229-2.7998Z" transform="translate(-275.5 -150.12051)" fill="#2f2e41"/><path d="M683.34143,522.52319a10.05579,10.05579,0,0,1-7.43164-12.34472l-28.82109-16.3816,15.7953-8.92765,24.6792,17.28764a10.11027,10.11027,0,0,1-4.22177,20.36633Z" transform="translate(-275.5 -150.12051)" fill="#ffb6b6"/><path d="M656.5,495.87949s-31.5-.5-33.7-8.5c0,0-1.8-3.7-7.2-3.2-1.4.13-2.79.38-4.19.56-.84.11-1.68.2-2.51.28a60.73159,60.73159,0,0,1-21.86-1.53,3.49995,3.49995,0,0,1-2.56-2.85v-.05L582.74,471.39A101.02808,101.02808,0,0,0,598.03,461.55a1.461,1.461,0,0,1,.12-.07,64.18156,64.18156,0,0,0,32.47-33.42,3.49718,3.49718,0,0,1,5.36-1.59l7.8,6.24,12.22,9.78L666.5,449.87949l-3.27,13.03-6.73,26.97Z" transform="translate(-275.5 -150.12051)" fill="#e6e6e6"/><path d="M738.94743,517.67632a10.05573,10.05573,0,0,1-14.18176,2.5531l-30.25-14.13144,12.66535-12.92913,27.00008,13.596a10.11028,10.11028,0,0,1,4.76633,10.91147Z" transform="translate(-275.5 -150.12051)" fill="#ffb6b6"/><path d="M707.5,495.87949s-6,6-19-7c0,0-9.7-5.84-13.35-2.92-14.65,11.72,35.35,25.92,35.35,25.92l1.78-7.21a6.41174,6.41174,0,0,0,.22-1.79v-7Z" transform="translate(-275.5 -150.12051)" fill="#e6e6e6"/><circle cx="419.5" cy="171.75898" r="24" fill="#ffb6b6"/><path d="M725.97479,311.01765A88.28656,88.28656,0,0,0,714.60235,325.438c-2.106,2.73712-4.16088,5.69959-4.53644,9.15509-.5824,5.352,3.05929,10.39049,7.56946,13.31448a34.26363,34.26363,0,0,0,14.13129,4.783c2.14144.284,4.407.23807,6.29,1.35937,2.95946,1.7584,4.0122,5.49716,5.92568,8.40894,3.74959,5.70951,10.95015,8.60207,17.84082,8.18122a28.64562,28.64562,0,0,0,14.2931-5.11537,32.93359,32.93359,0,0,0,8.792-10.289c2.99411-5.22,5.229-10.91167,8.4431-16.01324,6.6593-10.57768,18.94552-17.83948,32.00154-18.18694A27.99383,27.99383,0,0,0,845.5,304.37949c-1.74038-9.58-11.41-16.5-21-18-10.16-1.59-20.77.86-30.89,3.13a255.46075,255.46075,0,0,0-40.14,13.5c-6.35,2.71-16.31,6.37-18.65,13.5C733.41,320.51967,728.50842,314.99473,725.97479,311.01765Z" transform="translate(-275.5 -150.12051)" fill="#2f2e41"/><path d="M835.5,490.37949c-.96973-7.95-1.48-17.2-7.36-23.46a18.80786,18.80786,0,0,0-21.06-5.5c-6.62012,2.87-11.05994,8.93994-16.12988,13.86-3.32007,3.23-7.73022,10.02-12.45019,11.1h-.01l-.99.6-3.5,15.4-5.5,23.25-5.31006,2.49-5.32007,2.5-.52978.25-4.84009,2.27h-.01l-2.71.05-3.91993.07007h-.01l-2.58007.04993h-.01l-8.3501.16-47.15966.84h-.14014l-1.3501-7.76-.01-.06994L682.71,504.96945l-.98-5.59-.5-2.87-.5698-3.24-.08008-.48-.75-4.28v-.01l-.81-4.66c6.39991-4.30993,10.19-11.74,10.92994-19.52a33.025,33.025,0,0,0-1.98-15.27,53.62691,53.62691,0,0,0-3.56-8.01v-.01a48.44883,48.44883,0,0,0-6.58-9.53c-4.52978-5.17005-10.63965-8.56-16.46-11.90991-2.02-1.16-4.30029-2.36-6.10009-3.9a12.32767,12.32767,0,0,1-1.83009-2.01c-3.93018-5.34-2.75977-13.05.23-18.92,2.8999-5.72,6.8501-10.01,12.46-13.71,4.1001-2.7,8.52-4.94,12.86-7.15q6.825-3.47253,13.64991-6.96c9.24-4.71,18.5-9.64,28.41992-12.75,6.95-2.19,13.35986-4.58,20.72-4.58a46.89066,46.89066,0,0,1,11.85987,1.67c1.91015.47,3.8999,1.03,5.81,1.67a83.31212,83.31212,0,0,1,15.87011,7.32c10.24,6.06,19.4502,14.56,22.75,26.34,1.1001,3.91.99023,7.99,1.25,12.03.32031,5.05.54,4.16.62988,9.25a19.87157,19.87157,0,0,1-2.29,10.02l-15.73,37.87v.01a2.493,2.493,0,0,0,1.06006,3.23,2.56045,2.56045,0,0,0,.28027.11,2.40151,2.40151,0,0,0,.75.14,2.48879,2.48879,0,0,0,2.12988-1.19l.2002-.32995L804.5,395.37949l3.12012-6.12a27.02207,27.02207,0,0,0,2.39991-18.99A32.72789,32.72789,0,0,1,809.2306,361.58945c.26953-5.15.3999-10.31.42969-15.46a96.98374,96.98374,0,0,0-1.02-15.42,45.94486,45.94486,0,0,0-9.33008-21.76,62.48069,62.48069,0,0,0-18.1499-14.88,102.51022,102.51022,0,0,0-43.4502-11.67,87.04383,87.04383,0,0,0-43.88965,9.58c-11.93995,6.29-20.16016,15.96-25.56006,28.56-5.44043,12.69-3.58008,25.28,5.71973,35.8,1.23.14,2.45019.26,3.68017.42,9.05.25,12.7002.17,19.51026-.17,5.24-.48,10.39991-1.68,15.64991-2.28a41.7853,41.7853,0,0,1,27.06006,6.03l.01025.01c7.83985,5.5,11.8501,13.56,15.37988,22.36l7,17.32a1.46251,1.46251,0,0,1,.08984.30005l17.63037,56.87.62988,2.05.02.04993.6001,1.95,6.87988,22.25.05029.14-.01025.01,5.39991,17.43.54,1.75Z" transform="translate(-275.5 -150.12051)" fill="#4169e1"/><path d="M628.5,306.87949s12-6,22-8c0,0-1,4,4,9Z" transform="translate(-275.5 -150.12051)" fill="#e6e6e6"/><path d="M479.77051,339.99161c-7.72168-5.44141-15.604-11.06934-20.16895-19.3916-4.957-9.02832-5.6123-20.92285-.63086-29.9082,5.8125-10.48731,17.20313-16.37793,28.83887-18.56153,12.21582-2.294,24.77539-.41895,36.5166,3.43653,10.314,3.39453,20.502,8.41406,27.00684,17.11816,5.26172,7.05567,7.3291,16.7334,4.28906,25.03614-3.03809,8.30371-9.00195,13.22461-17.0332,16.4043-9.23633,3.67285-19.47754,4.39746-29.44824,4.43457-11.58887.04394-23.50391-.374-34.07618-5.77247a37.05685,37.05685,0,0,1-5.01464-3.10254c-.99024-.74316-1.86621.9668-.87989,1.707a38.6516,38.6516,0,0,0,18.91895,9.21386c11.13574,2.5254,22.73145,1.4126,33.98047.26563,10.47363-1.06934,21.6001-3.21387,30.365-9.77735,7.31055-5.48633,11.94629-14.418,11.16407-23.59863-.71778-8.40723-5.58887-16.01562-11.85645-21.26367-7.88671-6.62109-17.96094-9.97363-27.77442-12.24609-11.0293-2.5625-22.60449-3.29883-33.67577-.45313-10.00879,2.57227-19.60352,8.0625-24.999,17.25586-5.00684,8.54492-5.41309,19.3291-1.91114,28.57129,4.05372,10.70508,13.32911,17.92676,22.34082,24.43945.94239.67968,1.82715-0.89941.874-1.58692Z" transform="translate(-275.5 -150.12051)" fill="#3f3d56"/><polygon points="167.718 586.131 155.907 586.13 150.33 541.434 167.72 541.435 167.718 586.131" fill="#a0616a"/><path d="M147.5519,582.769h23.64387a0,0,0,0,1,0,0v14.88687a0,0,0,0,1,0,0H132.66484a0,0,0,0,1,0,0v0A14.88706,14.88706,0,0,1,147.5519,582.769Z" fill="#2f2e41"/><polygon points="219.718 586.131 207.907 586.13 202.33 541.434 219.72 541.435 219.718 586.131" fill="#a0616a"/><path d="M199.5519,582.769h23.64387a0,0,0,0,1,0,0v14.88687a0,0,0,0,1,0,0H184.66484a0,0,0,0,1,0,0v0A14.88706,14.88706,0,0,1,199.5519,582.769Z" fill="#2f2e41"/><circle cx="188.28524" cy="299.58975" r="17.83452" fill="#a0616a"/><path d="M391.89758,625.3916H378.04235a4.95826,4.95826,0,0,1-4.85736-3.94571l-13.57933-142.7643a1.24331,1.24331,0,0,0-2.36657-.16857l-16.41366,73.32625c-1.75842,7.85576-.64014,16.07682,3.22183,23.67152l55.96533,110.16848a5.02339,5.02339,0,0,1-2.68164,6.94448l-16.46935,6.25781a5.0586,5.0586,0,0,1-6.66382-2.69324l-53.9356-141.13768a40.5982,40.5982,0,0,1-1.30217-19.88247l18.13135-85.0651a22.44372,22.44372,0,0,1,15.887-16.98437c15.00867-4.1895,31.10594-8.50321,43.18085,2.10132,11.53663,10.15491,59.18355,175.47578,59.18355,175.47578a4.99,4.99,0,0,1-3.00668,6.30258l-16.51,6.59479a5.0111,5.0111,0,0,1-6.392-2.82126Z" transform="translate(-275.5 -150.12051)" fill="#2f2e41"/><path d="M350.18008,319.43542a9.428,9.428,0,0,0-.95119-11.58112l12.27993-35.17321-16.74109,5.24608L334.906,312.48891a9.48889,9.48889,0,0,0,15.27406,6.94651Z" transform="translate(-275.5 -150.12051)" fill="#a0616a"/><path d="M368.36311,293.336l-1.04421-.15052c-18.66394-2.69477-35.29177-5.056-46.849-16.72257v-.00016a14.52891,14.52891,0,0,1-3.72936-11.7305l-5.45346-45.21508a16.2157,16.2157,0,0,1,15.50424-17.87012h.001a16.33451,16.33451,0,0,1,17.32532,13.478l6.36707,37.33049,26.05,24.67616Z" transform="translate(-275.5 -150.12051)" fill="#e6e6e6"/><path d="M358.13989,338.96543a23.63731,23.63731,0,0,0,2.76623-1.24749c9.87222-5.16455.09155-13.42068,3.07919-20.82345l1.73274-4.29321,2.40525-5.95562-20.24717-10.17889-2.40525,6.53572-1.74072,4.72939c-4.41571,12.02351-2.78875,23.88911,14.40973,31.23356Z" transform="translate(-275.5 -150.12051)" fill="#e6e6e6"/><path d="M364.29159,290.48233q-.3094.30566-.60522.63135c-9.6217,10.28583-19.6258,20.33777-31.24224,28.57a4.57851,4.57851,0,0,1-7.02525-2.552l-.01123-.07471a141.56737,141.56737,0,0,1-1.46567-47.064l.18635-.80072,16.7334,5.12128Z" transform="translate(-275.5 -150.12051)" fill="#4169e1"/><path d="M344.34975,242.36375c.33319-1.64122,1.44338-3.18432,3.05552-3.48685,1.52746-.28635,3.00048.60954,4.31994,1.44122a25.22279,25.22279,0,0,1,3.29126,2.53,38.7174,38.7174,0,0,1,5.1622,5.06727,10.68153,10.68153,0,0,1,1.99279,3.40039,4.07326,4.07326,0,0,1-.37384,3.70457c-.95832,1.328-2.84667,1.666-4.40813,1.17866-1.5625-.48777-2.92888-1.59692-4.50555-2.006a6.33766,6.33766,0,0,0-5.76856,1.63568,8.86589,8.86589,0,0,0-2.01221,5.96785,17.00689,17.00689,0,0,0,.64321,4.40009,15.04167,15.04167,0,0,0-16.227,1.05624,14.65255,14.65255,0,0,0-5.27321,15.96459c-2.23923.05294-4.36559,1.64316-4.74635,3.85024s1.10291,4.50121,3.24865,5.21116,4.49442.04377,6.19586-1.45012,2.67122-3.7079,3.58618-5.81793a36.261,36.261,0,0,0,2.659-12.05718,17.10721,17.10721,0,0,1,4.93706,19.92113,15.25825,15.25825,0,0,1-15.93766,7.89832,14.37659,14.37659,0,0,1-6.27445-29.58923c6.30949-4.10717,15.97664-1.93008,20.73558-8.33406,2.69645-3.63257,1.969-8.95685-1.05064-12.38431a12.24392,12.24392,0,0,0-11.8663-3.52218c-4.46233,1.0308-8.09137,4.16442-11.24853,7.30787q-6.75907,6.71143-12.27575,14.49557a28.02435,28.02435,0,0,0-15.14726,3.04282,14.81376,14.81376,0,0,0-1.28234-3.8685,8.66693,8.66693,0,0,0-7.58831-4.63178c-3.97822.0081-7.35413,3.02589-8.84116,6.71264s-1.41455,7.82553-1.14121,11.8071a12.4987,12.4987,0,0,0,11.610-8.43049c-1.39642,4.13414-.5662,8.82485,1.97321,12.31974a13.216,13.216,0,0,0,9.83524,5.21089,11.51747,11.51747,0,0,0,10.40985-4.81245c2.09916-2.6395,2.88988-6.13491,2.68556-9.49146s-1.382-6.56-2.83512-9.53754A46.10026,46.10026,0,0,0,316.496,245.71051q5.47175-8.197,11.76148-15.75335a20.87954,20.87954,0,0,1,6.37766-5.56337,15.97454,15.97454,0,0,1,8.845-1.32266c2.12867.35037,4.19542,1.2216,6.37251,1.37371a5.29354,5.29354,0,0,0,5.07412-2.60859,7.10313,7.10313,0,0,0,.48057-5.30817,16.76774,16.76774,0,0,0-7.22885-9.56779,16.2558,16.2558,0,0,0-12.26777-1.725,20.85387,20.85387,0,0,0-10.326,6.88146c-5.626,6.46038-7.58,15.61442-6.14153,24.0805s5.80945,16.04709,11.00072,22.94423a39.53333,39.53333,0,0,0,6.89423,7.42651,49.34911,49.34911,0,0,0,8.42432,5.5683c-1.36325,1.1505-2.74475,2.27972-4.1488,3.37691a1.44527,1.44527,0,0,0-.53187,1.9909,43.56911,43.56911,0,0,1,2.45973-4.94253Z" transform="translate(-275.5 -150.12051)" fill="#2f2e41"/><path d="M429.34342,319.43542a9.428,9.428,0,0,1,.95119-11.58112l-12.27993-35.17321,16.7411,5.24608,9.85976,34.56174a9.48889,9.48889,0,0,1-15.27406,6.94651Z" transform="translate(-275.5 -150.12051)" fill="#a0616a"/><path d="M411.16039,293.336l1.04422-.15052c18.66394-2.69477,35.29177-5.056,46.849-16.72257v-.00016a14.52878,14.52878,0,0,0,3.72936-11.7305l5.45345-45.21508a16.21569,16.21569,0,0,0-15.50424-17.87012h-.001A16.33449,16.33449,0,0,0,435.4021,214.914l-6.36707,37.33049-26.05,24.67616Z" transform="translate(-275.5 -150.12051)" fill="#e6e6e6"/><path d="M389.22057,560.81276a8.04354,8.04354,0,0,0,3.80476-14.76889l.27611-25.43912-10.83266,9.89987,1.2965,23.1282A8.07177,8.07177,0,0,0,389.22057,560.81276Z" transform="translate(-275.5 -150.12051)" fill="#a0616a"/><path d="M392.17345,531.95865l-12.12751-.54621-.03813-.13647-23.65576-84.47939-.68414-2.44873.68414,2.44873c-5.52959-5.50835-11.03157-44.88751-9.14465-59.88877.33881-2.69378.79254-4.18652,1.43379-4.85211a1.2926,1.2926,0,0,1,.95778-.27246c13.23216,1.478,53.28789,5.94775,53.28789,5.94775l-1.57011,66.351-9.02093,77.334Z" transform="translate(-275.5 -150.12051)" fill="#4169e1"/><path d="M599.5,748.17949h-323a1,1,0,0,1,0-2h323a1,1,0,0,1,0,2Z" transform="translate(-275.5 -150.12051)" fill="#cbcbcb"/></svg>