<svg xmlns="http://www.w3.org/2000/svg" data-name="Layer 1" width="650.8417" height="479.80338" viewBox="0 0 650.8417 479.80338" xmlns:xlink="http://www.w3.org/1999/xlink"><path d="M510.72229,526.20188H500.57729V399.56835a42.14793,42.14793,0,0,0-42.14771-42.14769H308.77131a42.14793,42.14793,0,0,0-42.14769,42.14769V647.26276a42.14794,42.14794,0,0,0,42.14769,42.1477H458.42958a42.14794,42.14794,0,0,0,42.14771-42.1477V555.28618h10.145Z" transform="translate(-274.57915 -210.09831)" fill="#3f3d56"/><path d="M458.26394,371.637H437.8537a15.08416,15.08416,0,0,1-13.96636,20.81031H342.37426a15.08415,15.08415,0,0,1-13.96637-20.81031H308.93692a31.49726,31.49726,0,0,0-31.49726,31.49727V647.00351a31.49726,31.49726,0,0,0,31.49726,31.49727H458.26394a31.49727,31.49727,0,0,0,31.49727-31.49727h0V403.13428A31.49727,31.49727,0,0,0,458.26394,371.637Z" transform="translate(-274.57915 -210.09831)" fill="#fff"/><path d="M634.94019,661.12733H473.97516a10.22144,10.22144,0,0,1-10.21-10.21v-2.07a10.22144,10.22144,0,0,1,10.21-10.21H634.94019a10.22144,10.22144,0,0,1,10.21,10.21v2.07A10.22144,10.22144,0,0,1,634.94019,661.12733Z" transform="translate(-274.57915 -210.09831)" fill="#4169e1"/><path d="M564.98652,374.48528a10.03172,10.03172,0,0,0-4.32662-16.59236l2.66392-35.54016-14.77174-5.76344-4.32748,52.28181a10.08621,10.08621,0,0,0,20.76192,5.61415Z" transform="translate(-274.57915 -210.09831)" fill="#9f616a"/><polygon points="270.488 467.927 282.748 467.926 288.58 420.638 270.486 420.639 270.488 467.927" fill="#9f616a"/><path d="M542.44474,674.02233l24.1438-.001h.001a15.38605,15.38605,0,0,1,15.38647,15.38632v.5l-39.53052.00146Z" transform="translate(-274.57915 -210.09831)" fill="#2f2e41"/><polygon points="154.488 467.927 166.748 467.926 172.58 420.638 154.486 420.639 154.488 467.927" fill="#9f616a"/><path d="M426.44474,674.02233l24.1438-.001h.001a15.38605,15.38605,0,0,1,15.38647,15.38632v.5l-39.53052.00146Z" transform="translate(-274.57915 -210.09831)" fill="#2f2e41"/><path d="M431.5939,652.47326a4.5206,4.5206,0,0,1-4.48877-4.81061l10.4646-160.27783a1.50026,1.50026,0,0,0-2.93286-.53613L399.63414,646.10756a4.50245,4.50245,0,0,1-5.14,3.80957l-15.34961-1.59863a4.50029,4.50029,0,0,1-4.01367-5.00391l25.24244-266.60742a4.13853,4.13853,0,0,1,.08545-.78614L416.68341,348.457a4.45451,4.45451,0,0,1,3.02246-3.57226,18.747,18.747,0,1,0-2.15332-3.60449l-12.26514,8A4.4731,4.4731,0,0,1,402,350.64236c-.5747.03809-1.12646.10156-1.66138.20312a4.55273,4.55273,0,0,1-5.02221-3.63964c-6.15625-37.3086-15.87622-89.640625-15.94311-90.00586a6.72224,6.72224,0,0,1-.24285-1.30371,10.00714,10.00714,0,0,1,19.78614-2.6709L426.134,377.9997a3.49348,3.49348,0,0,0,6.92382.3623l5.11596-165.23a10.0034,10.0034,0,1,1,20.00585.33789L450.76388,646.13187a4.51837,4.51837,0,0,1-4.50732,4.34179A4.42488,4.42488,0,0,1,445.68,650.40263l-13.93946-3.13574a4.42976,4.42976,0,0,1-3.38232-3.5166l-.26855-1.32129c-.36035-2.27637-.60546-4.5747-.8916-6.7788-.42114-3.48535-.8457-6.97656-1.34472-10.61621-2.55859-18.48926-6.0708-43.92187-1.11621-62.6211a1.5,1.5,0,0,0-2.92335-.55859l-17.04346,111.7041a4.47878,4.47878,0,0,1-4.87182,3.81445l-13.33081-1.25683a4.503,4.503,0,0,1-4.10059-4.87793L391.67973,505.203a1.50023,1.50023,0,0,0-2.97608-.30761l-20.33814,141.55127a4.50906,4.50906,0,0,1-4.34863,3.875c-.12036.00489-.24073.00489-.35962.01318Z" transform="translate(-274.57915 -210.09831)" fill="#2f2e41"/><circle cx="189.16461" cy="48.1929" r="24.56103" fill="#9f616a"/><path d="M484.88261,432.128a4.505,4.505,0,0,1-3.52539-1.69726l-20.26563-24.7002a4.50508,4.50508,0,0,1,6.9336-5.74023l20.26563,24.7002a4.50508,4.50508,0,0,1-3.40821,7.43769Z" transform="translate(-274.57915 -210.09831)" fill="#4169e1"/><path d="M437.43618,432.128a4.50508,4.50508,0,0,1-3.40821-7.43769l20.26563-24.7002a4.50508,4.50508,0,0,1,6.9336,5.74023l-20.26563,24.7002A4.505,4.505,0,0,1,437.43618,432.128Z" transform="translate(-274.57915 -210.09831)" fill="#4169e1"/><path d="M559.8995,294.99529c-10.76016,11.31523-29.56543,10.95337-29.56543,10.95337s-3.23743-19.79305,7.52418-31.10828c10.76016-11.31524,29.56543-10.95337,29.56543-10.95337S570.66111,283.68006,559.8995,294.99529Z" transform="translate(-274.57915 -210.09831)" fill="#4169e1"/><path d="M563.82447,363.94889c-16.43272,4.15784-32.123-4.65389-32.123-4.65389s12.4889-15.70685,28.92164-19.86465,32.123,4.65389,32.123,4.65389S580.25719,359.79111,563.82447,363.94889Z" transform="translate(-274.57915 -210.09831)" fill="#4169e1"/><path d="M389.8995,238.99529c-10.76016,11.31523-29.56543,10.95337-29.56543,10.95337s-3.23743-19.79305,7.52418-31.10828c10.76016-11.31524,29.56543-10.95337,29.56543-10.95337S400.66111,227.68006,389.8995,238.99529Z" transform="translate(-274.57915 -210.09831)" fill="#4169e1"/><path d="M460.84943,261.12547c.56722,15.93628-10.63927,29.38566-10.63927,29.38566s-12.48316-12.49615-13.05039-28.43243,10.63927-29.38561,10.63927-29.38561S460.2822,245.18931,460.84943,261.12547Z" transform="translate(-274.57915 -210.09831)" fill="#4169e1"/><path d="M436.05936,483.02981a10.05578,10.05578,0,0,1,7.51295-12.74854l27.89453-26.73755,4.74571,17.33643-27.98906,23.11816a10.11027,10.11027,0,0,1-12.16413-.9685Z" transform="translate(-274.57915 -210.09831)" fill="#9f616a"/><path d="M453.49011,466.18a4.50493,4.50493,0,0,1-1.23487-3.2666L453.013,440.1496a4.51468,4.51468,0,0,1,5.21288-4.454c10.99365,1.34375,44.20867,2.56348,63.12262-21.07031a22.21067,22.21067,0,0,1,17.0127-7.375h0a22.3376,22.3376,0,0,1,15.99878,6.18653c9.023,8.73535,18.071,24.46386,6.92627,53.40429a4.58107,4.58107,0,0,1-3.49414,2.92578l-66.76709,10.75879a4.48863,4.48863,0,0,1-3.12622-.63476l-30.57055-16.89161A4.50119,4.50119,0,0,1,453.49011,466.18Z" transform="translate(-274.57915 -210.09831)" fill="#4169e1"/><path d="M458.76388,287.05106c-5.45459-.6875-11.19751-1.3252-16.35974,1.0791-4.9917,2.32432-7.79933,6.53235-10.05087,11.76441A150.3641,150.3641,0,0,0,421.56067,338.91a42.01225,42.01225,0,0,0-.7311,12.78859,35.87492,35.87492,0,0,0,4.60527,13.49357c4.57055,8.54828,10.81248,17.04389,21.37854,17.70392,10.33917.6474,19.93576-7.13577,22.67673-16.85362,2.911-10.30188-1.18612-20.677-1.94116-31.24402-1.08172-15.11781,4.176-30.37,3.07-45.484C470.13641,281.33868,464.22,287.73156,458.76388,287.05106Z" transform="translate(-274.57915 -210.09831)" fill="#2f2e41"/><polygon points="650.842 468.059 639.332 471.553 620.932 429.528 637.814 424.352 650.842 468.059" fill="#a0616a"/><path d="M938.16554,688.99583l-37.89621,11.5348-.21465-.70433a15.386,15.386,0,0,1,10.06207-19.24682l.00093-.00028,23.14638-7.05225Z" transform="translate(-274.57915 -210.09831)" fill="#2f2e41"/><polygon points="577.958 478.756 565.837 478.756 560.177 433.311 577.96 433.312 577.958 478.756" fill="#a0616a"/><path d="M855.66429,688.99583l-38.53271-.00139v-.48583a14.9979,14.9979,0,0,1,14.9969-14.99657h.00095l23.5358.00095Z" transform="translate(-274.57915 -210.09831)" fill="#2f2e41"/><path d="M862.53091,416.55827,903.859,465.63134l-9.24789,144.7142,22.66809,72.0304-20.33673,6.34584-40.67332-142.3868-22.66825-51.00158-44.3573,182.31344-25.88934-1.77744,8.35918-193.56839Z" transform="translate(-274.57915 -210.09831)" fill="#2f2e41"/><path d="M856.88507,404.01149c2.65686,17.49415-3.19657,25.30926-3.19657,25.30926-12.017-6.82793-3.94212-28.55781-3.94212-28.55781l2.75121-9.01971s4.37113,11.5834,1.29779,24.04197a2.52225,2.52225,0,0,0,2.4232-4.00382Z" transform="translate(-274.57915 -210.09831)" fill="#e6e6e6"/><path d="M861.68314,407.86587s4.32664-17.59994-6.05714-29.54818l-7.40306-8.14337-18.50791-9.69153-3.70154-16.90945-20.35847,2.22159-8.14337,21.09877,9.25659,20.35846,5.55569,65.28963Z" transform="translate(-274.57915 -210.09831)" fill="#e6e6e6"/><path d="M814.01141,357.40219l-2.22141-11.10714-3.70153-11.84813-7.40337-10.36665c0-41.08353,22.03425-37.02636,22.03425-37.02636l26.474-9.36424,12.21742-1.48088,27.58267,9.62675.0003,16.16592-6.66244,9.2564L846.45,320.37519l-16.90945,11.10744s-2.22158,20.66109-13.32823,25.9293Z" transform="translate(-274.57915 -210.09831)" fill="#e6e6e6"/><circle cx="838.66855" cy="315.1511" r="23.56723" transform="translate(-62.48518 721.24832) rotate(-61.33681)" fill="#a0616a"/><path d="M804.02075,303.7499a36.47654,36.47654,0,0,0,35.33954-5.34626c-10.988-6.05705-22.603-10.55862-35.33954-5.34626,8.79485-13.88942,30.427-20.62458,47.00271-10.65668l26.6523,16.00352a29.50744,29.50744,0,0,0-29.47023-16.00352,34.89157,34.89157,0,0,1,25.86172,5.90978c.62891-8.27911-4.1886-16.22889-10.4726-21.51552-7.47829-6.27834-17.28967-8.86119-26.53135-10.48509-9.24176-1.62389-18.641-2.27107-27.78909-4.27106-8.93094-1.95353-17.59833-5.50613-24.84869-11.19682s-12.76139-14.31412-13.59607-23.519a10.45565,10.45565,0,0,0,11.01582,6.93468,8.033,8.033,0,0,0-6.49562-10.9765c9.1319-11.40779,28.37238-9.4614,41.37956-2.0201S853.2292,282.40231,853.907,297.8099C837.9093,292.03375,819.96511,292.61878,804.02075,303.7499Z" transform="translate(-274.57915 -210.09831)" fill="#2f2e41"/><path d="M780.82523,437.81668a10.05576,10.05576,0,0,1,10.9793-9.81724l35.17319-16.42991,2.192,17.95215-34.46987,12.80171a10.11027,10.11027,0,0,1-13.82461-4.50671Z" transform="translate(-274.57915 -210.09831)" fill="#a0616a"/><path d="M813.55349,440.4146c-6.45068-51.42126,19.50245-43.87774,20.35849-95.29785,0,0,13.3284-7.40306,20.0011-6.19843l9.08423,10.08426a25.34421,25.34421,0,0,1,6.88519,17.73315c0,39.42648-31.9456,81.16-44.05369,83.73651Z" transform="translate(-274.57915 -210.09831)" fill="#e6e6e6"/><path d="M924.42085,689.90169h-205a1,1,0,0,1,0-2h205a1,1,0,0,1,0,2Z" transform="translate(-274.57915 -210.09831)" fill="#ccc"/></svg>