<svg xmlns="http://www.w3.org/2000/svg" data-name="Layer 1" width="743.65001" height="332.63275" viewBox="0 0 743.65001 332.63275" xmlns:xlink="http://www.w3.org/1999/xlink"><path d="M368.405,450.68637a22.728,22.728,0,0,0,22.71583-22.71583V398.13863a22.728,22.728,0,0,0-22.71583-22.71583h-39.543a22.728,22.728,0,0,0-22.71583,22.71583v29.83191a22.728,22.728,0,0,0,22.71583,22.71583Z" transform="translate(-228.175 -283.68362)" fill="#e6e6e6"/><path d="M400.71818,456.18636a22.728,22.728,0,0,0,22.71582-22.71582V403.63863a22.728,22.728,0,0,0-22.71582-22.71582H361.17525a22.728,22.728,0,0,0-22.71582,22.71582v29.83191a22.728,22.728,0,0,0,22.71582,22.71582Z" transform="translate(-228.175 -283.68362)" fill="#4169e1"/><polygon points="128.93 305.638 137.773 313.085 169.771 284.523 156.775 273.167 128.93 305.638" fill="#ffb7b7"/><path d="M353.337,595.62355l21.93742,18.5097,2.58267-3.06313c.05255-.06223,5.272-6.33116,7.2036-15.00526,1.9613-8.8304.49811-21.46017-11.70863-37.02364-2.31975,1.06127-4.6289,2.04132-6.9437,2.97545-2.13174.86625-4.26931,1.68822-6.416,2.47308-.06554.02383-.12525.04765-.19079.07148-1.30551.47711-2.61683.92994-3.93343,1.36468-.49812.166-.9857.32625-1.48382.4917-.03291.0048-.05673.0145-.08964.01921-.00766.00481-.01149.00481-.01532.00962-3.01441.94832-6.05324,1.823-9.12466,2.63434-.03057.00962-.06113.01443-.09169.02405-.78591.20665-1.57181.41331-2.36389.6055-.32625.083-.65251.166-.9746.24424-.68276.166-1.3697.33669-2.05246.48486-.2231.05255-.4462.10509-.66929.15764-.74422.17084-1.48381.34167-2.22336.50313-.47429.10509-.94376.20535-1.41382.30562-.29569.06217-.59137.12915-.8912.19132-.7146.14763-1.42538.30049-2.13615.44331-.35682.07148-.70782.14776-1.06464.21444-.10509.0193-.20437.03861-.30946.0579-.63984.12852-1.27967.25223-1.91951.37114-.22311.04293-.44621.08585-.66931.12878-.14323.02875-.28645.05256-.43541.08131-.28629.04774-.57258.10029-.85887.14322-.06113.01443-.12517.02405-.1863.03387-1.56721.271-3.13443.51784-4.71083.75727-.11461.01443-.231.03348-.34675.04792-1.34887.207-2.69774.39309-4.05616.56011-.19062.02405-.38124.04328-.57186.067-.07627.01443-.14806.02405-.22432.03348-.49812.05737-.99624.11-1.49919.16254-.249.02405-.49812.05255-.75344.07179-1.03416.09978-2.07833.187-3.12867.27244-.60645.04774-1.21867.08645-1.82512.12481-.07628.00476-.15805.01414-.23432.01876-.18478.00963-.36956.02387-.55434.0335-.24323.0145-.48646.02828-.7297.04765-1.04187.06217-2.0837.10982-3.13443.156-.41397.01919-.82778.03338-1.24174.04771-.249.01435-.49811.01919-.75344.02881-1.1876.03829-2.37914.06192-3.57069.07141-.09169.00481-.1863.00481-.27226.00481-.09074.04239-.16653.07627-.22789.10509-.36343.15242-.67373.29988-.96017.43346,5.14127,31.50745,9.88835,60.62628,9.88835,60.62628l25.88233-3.1983c0-.00482,8.57-25.23257,15.51815-45.59028Z" transform="translate(-228.175 -283.68362)" fill="#2f2e41"/><polygon points="81.924 87.728 106.553 86.092 106.553 115.159 84.878 122.395 81.924 87.728" fill="#ffb7b7"/><polygon points="46.349 321.573 59.024 321.573 65.048 272.346 46.348 272.347 46.349 321.573" fill="#ffb7b7"/><path d="M272.07645,601.53456l25.0918-.00093h.00093a15.9873,15.9873,0,0,1,15.9863,15.98609v.51956l-41.07839.00185Z" transform="translate(-228.175 -283.68362)" fill="#2f2e41"/><polygon points="109.631 321.573 122.307 321.573 128.331 272.346 109.63 272.347 109.631 321.573" fill="#ffb7b7"/><path d="M335.35865,601.53456l25.0918-.00093h.00093a15.9873,15.9873,0,0,1,15.9863,15.98609v.51956l-41.07839.00185Z" transform="translate(-228.175 -283.68362)" fill="#2f2e41"/><path d="M316.0599,554.56034c0-1.326-.01024-2.43672-.01024-2.43672l-.353-.68432-9.94613-19.24806-8.59033-16.62916-2.86682-5.54417-9.01667-17.45365-7.1221-13.79138-39.1645,7.1221-5.74061,19.24806-11.24526,13.79638s-10.31877,7.17309-10.37461,7.21869L236.303,553.89653l4.86009,16.13081,24.90466-6.02708c5.3945,6.92617,10.25819,14.23722,14.19684,21.78106l43.47318-14.46129-.98866-3.32642-.00488-.01464a39.21269,39.21269,0,0,0-2.23717-6.06792A139.9471,139.9471,0,0,0,316.0599,554.56034Z" transform="translate(-228.175 -283.68362)" fill="#2f2e41"/><path d="M367.40344,475.77826s-5.69623,1.72773-10.67183,3.23693c-7.63316,2.31012-22.18,6.73078-29.20908,8.92975a40.15308,40.15308,0,0,0-10.95413,5.04266c-3.261,2.1611-6.0511,5.4143-6.0511,5.4143L287.47311,531.8024l-2.51391,31.34879-51.68219-1.25582L227.82637,449.76l29.79274-25.59149,43.92389,1.88485,4.21229,1.2455,17.27662,5.10827,19.67827-3.99109,8.12507,14.70889Z" transform="translate(-228.175 -283.68362)" fill="#e6e6e6"/><path d="M316.66254,360.35288c-4.57727.28291-10.99919,1.9951-15.8427,4.95552-.3781.23062-.74689.47059-1.10636.72-5.157,3.56635-8.034,8.53145-5.89553,14.15331,3.63743,9.55856,5.4506,23.26842.96373,32.79278-2.0282,4.3243-1.40943,9.45017-1.40943,9.45017s1.2662,2.25463,3.20451,5.49651a116.96768,116.96768,0,0,0,8.15,12.16623c6.42186,8.47667,15.13781,17.11684,21.12288,16.58444,8.50764-.75736,28.2073-2.8106,36.199-3.84257a1.50584,1.50584,0,0,0,1.2902-1.38952c.14432-1.19151.12873-6.08312.08719-11.75186-.01535-2.31211-.03067-4.73884-.03067-7.12558,0-.25525.00005-1.92691.00049-4.25612.00041-18.37726.01385-62.64911-3.5e-5-69.4267-8.26994-.00384-21.71117-.23022-34.17855-.46044C321.29326,360.2118,319.137,360.19642,316.66254,360.35288Z" transform="translate(-228.175 -283.68362)" fill="#4169e1"/><circle cx="103.26982" cy="73.11488" r="29.08043" fill="#ffb7b7"/><path d="M366.0512,321.888s-10.2181.18848-18.01432,5.61614c-7.79622,5.42767-17.27682.92151-17.27682.92151l-2.41854-2.91855s-14.33,1.40311-22.45451,7.38511-11.26825,14.77031-11.26825,14.77031.90009-4.14659-4.89222-.15183a11.65726,11.65726,0,0,0-3.04773,2.80856s-.73.8,1.51556-8.54492c2.24553-9.34491,1.96386-10.70013,4.88183-16.01153,2.91026-5.30366,3.12-5.84228,2.31231-8.74768s-3.41834-9.46472-1.56924-12.42753c4.81259-7.73315,15.7327-9.3608,15.7327-9.3608s2.91855-5.72951,8.37823-4.02855c5.4597,1.7009,18.12775,3.7823,18.12775,3.7823s7.26825-4.24432,10.87-2.33435,12.78089-.77822,13.89089,7.68613a95.12094,95.12094,0,0,1,.79254,20.51827Z" transform="translate(-228.175 -283.68362)" fill="#2f2e41"/><path d="M359.68378,387.72792a19.92462,19.92462,0,0,0-3.21388-4.47017,16.72648,16.72648,0,0,0-3.61867-2.53338c-3.03666-1.595-6.12192-3.27762-9.47444-3.96925a16.31941,16.31941,0,0,0-5.65763-.48868,30.67853,30.67853,0,0,0-8.84827,1.8052,22.19993,22.19993,0,0,0-11.63738,10.42962c-1.782,3.52049-2.16111,9.36169-1.13842,13.218.5626,2.11979,8.413,13.67561,8.413,13.67561,2.33077-3.43113,5.79861.7416,8.88119.95705a25.02449,25.02449,0,0,0,5.95942-.24192,11.59916,11.59916,0,0,0,4.25105-1.33624,19.68761,19.68761,0,0,0,8.57411-9.1136,35.97346,35.97346,0,0,0,3.3308-11.32254c.27127-1.85989-.45318-5.59023,1.34632-6.79467a2.15,2.15,0,0,1,1.33868-.32445,1.12238,1.12238,0,0,1,.30723.05506C361.42541,388.03188,360.07327,387.82633,359.68378,387.72792Z" transform="translate(-228.175 -283.68362)" fill="#2f2e41"/><polygon points="137.915 90.214 115.129 88.098 111.635 97.375 137.915 97.375 137.915 90.214" fill="#ffb7b7"/><path d="M366.09009,344.97456c-.06763,0-.13573-.00049-.20435-.00293l-29.00976-.95459a4.5092,4.5092,0,0,1-4.30664-4.67334l1.29492-37.01465a4.50929,4.50929,0,0,1,4.67383-4.30664l29.00927.95459a4.50989,4.50989,0,0,1,4.30713,4.67334l-1.29492,37.01465A4.51158,4.51158,0,0,1,366.09009,344.97456Z" transform="translate(-228.175 -283.68362)" fill="#4169e1"/><path d="M374.77539,472.9379c-3.76172-1.955-7.54688-3.834-11.38818-5.5293l-1.08642-.47656a110.37643,110.37643,0,0,0-17.97071-6.05713c-9.28735-2.31738-18.91186-3.49316-28.65039-3.49316-3.625,0-7.23926.164-10.73243.48828l-2.84472.26465a63.72945,63.72945,0,0,0-8.22168,1.31689,2.04135,2.04135,0,0,1-2.208-.62744,1.92361,1.92361,0,0,1-.31592-1.74268,89.00789,89.00789,0,0,1,9.79492-26.34229l.09522-.16992a75.73866,75.73866,0,0,1,4.05469-6.52881l1.73828-2.52344a62.73721,62.73721,0,0,1,8.45557-10.11084l.48925-.47608a27.95361,27.95361,0,0,1,3.22022-2.77929l.5957.10108c.09815.01709.23487.04053.38208.069a21.93489,21.93489,0,0,1,5.5664,1.7539l.89258.416c3.78174,1.70557,6.25976,3.42676,7.03369,4.88184l3.10962,5.75927,1.834,3.39844,6.50635,12.0459c.00049,0,1.56739,2.90723,1.94531,3.60938l.40235.749.749,1.39209,22.53759,41.88232,2.3,4.27a3.38333,3.38333,0,0,1-.60156,3.94482A3.30948,3.30948,0,0,1,374.77539,472.9379Z" transform="translate(-228.175 -283.68362)" fill="#e6e6e6"/><path d="M230.29542,450.73719l58.882,18.33,4.85018,20.27578v6.04333s10.29541,32.20889,10.29541,33.0422c0,.832,6.04333,24.96053,6.04333,24.96053l12.92107-22.33388-9.46221-34.70778-7.708-36.062V443.92034a12.32075,12.32075,0,0,0-3.07446-8.15345h0l-49.4178-13.75436Z" transform="translate(-228.175 -283.68362)" fill="#e6e6e6"/><path d="M970.825,576.00664h-738.65v-2h738.65Z" transform="translate(-228.175 -283.68362)" fill="#3f3d56"/><path d="M764.76659,445.75162c-13.46566,0-24.425-10.95938-24.425-24.425s10.95934-24.42505,24.425-24.42505,24.42505,10.95939,24.42505,24.42505S778.23225,445.75162,764.76659,445.75162Z" transform="translate(-228.175 -283.68362)" fill="#4169e1"/><polygon points="545.371 150.985 531.959 143.681 532.959 142.681 545.371 149.385 562.59 139.785 563.257 141.004 545.371 150.985" fill="#3f3d56"/><path d="M846.31659,441.40668a14.01666,14.01666,0,0,1-13.17969-18.55469l.24707-.7041a14.03827,14.03827,0,0,1,17.49512-8.83056l.75634.26367a14.0268,14.0268,0,0,1-5.3208,27.82568Zm.00293-26.01953a12.01516,12.01516,0,0,0-4.21875,23.249,12.0413,12.0413,0,0,0,15.08985-7.57373l.00586-.01611a12.01158,12.01158,0,0,0-10.877-15.66846Z" transform="translate(-228.175 -283.68362)" fill="#3f3d56"/><path d="M809.87357,439.03826a10.75353,10.75353,0,0,1-9.12988-16.58349,10.7536,10.7536,0,1,1,9.12988,16.58349Zm-.00146-19.501a8.753,8.753,0,1,0,8.7529,8.75293A8.76224,8.76224,0,0,0,809.87211,419.53728Z" transform="translate(-228.175 -283.68362)" fill="#3f3d56"/><circle cx="564.59045" cy="137.78442" r="9.75293" fill="#3f3d56"/><circle cx="538.6029" cy="142.90277" r="9.75293" fill="#3f3d56"/><path d="M737.36434,565.08953l17.85855-12.56376V435.409a7.00739,7.00739,0,0,0-7-7h-87a7.00787,7.00787,0,0,0-7,7V565.03953Z" transform="translate(-228.175 -283.68362)" fill="#4169e1"/><path d="M685.28162,565.03826v-120h-20v120Zm61.0127-120H736.3229v120h9.9714Zm-41.0127,0v120h9.96826v-120Z" transform="translate(-228.175 -283.68362)" opacity="0.2"/><polygon points="539.68 151.919 539.68 155.403 482.971 155.403 482.971 151.919 472.856 151.919 472.856 165.403 549.795 165.403 549.795 151.919 539.68 151.919" fill="#3f3d56"/><path d="M835.15275,516.50486a8.07236,8.07236,0,0,1-14.00507-7.982q.06124-.10761.12639-.21286a8.06985,8.06985,0,0,1,14.92857,6.11939Q835.96631,515.87571,835.15275,516.50486Z" transform="translate(-228.175 -283.68362)" fill="#e6e6e6"/><path d="M872.11,496.95007l-39.67766,22.90735a16.13781,16.13781,0,0,1-22.00195-5.9043h0a16.14149,16.14149,0,0,1,6.00342-22.10156L854.28,469.0354Z" transform="translate(-228.175 -283.68362)" fill="#e6e6e6"/><rect x="784.69483" y="512.1558" width="2" height="42.71205" transform="translate(-384.17089 267.16712) rotate(-30)" fill="#3f3d56"/><path d="M866.82591,555.08953h16.05267a0,0,0,0,1,0,0v13.80069a0,0,0,0,1,0,0H852.9765a0,0,0,0,1,0,0v-13.80069A13.84941,13.84941,0,0,1,866.82591,555.08953Z" transform="translate(1507.6803 840.29613) rotate(-180)" fill="#3f3d56"/></svg>