<svg xmlns="http://www.w3.org/2000/svg" data-name="Layer 1" width="707.18626" height="431.61208" viewBox="0 0 707.18626 431.61208" xmlns:xlink="http://www.w3.org/1999/xlink"><path d="M644.93,625.23l-.49,1.08-.98-1.08h-1.54l-.49,1.08-.98-1.08h-1.54l-.49,1.08-.98-1.08h-1.54l-.49,1.08-.98-1.08h-1.54l-.49,1.08-.98-1.08h-1.54l-.49,1.08-.98-1.08h-1.54l-.49,1.08-.98-1.08h-1.54l-.49,1.08-.98-1.08h-1.54l-.49,1.08-.98-1.08h-1.54l-.49,1.08-.98-1.08h-1.54l-.49,1.08-.98-1.08h-1.54l-.49,1.08-.98-1.08h-1.54l-.49,1.08-.98-1.08h-1.54l-.49,1.08-.98-1.08h-1.54l-.49,1.08-.98-1.08h-1.54l-.49,1.08-.98-1.08h-1.54l-.49,1.08-.98-1.08h-1.54l-.49,1.08-.98-1.08h-1.54l-.49,1.08-.98-1.08H591l-.49,1.08-.98-1.08h-1.54l-.49,1.08-.98-1.08h-1.54l-.49,1.08-.98-1.08h-1.54l-.49,1.08-.98-1.08h-1.54l-.49,1.08-.98-1.08h-1.54l-.49,1.08-.98-1.08h-1.54l-.49,1.08-.98-1.08h-1.54l-.49,1.08-.98-1.08h-1.54l-.49,1.08-.98-1.08h-1.54l-.49,1.08-.98-1.08h-1.54l-.49,1.08-.98-1.08h-1.54l-.49,1.08-.98-1.08H549l-.49,1.08-.98-1.08h-1.54l-.49,1.08-.98-1.08h-1.54l-.49,1.08-.98-1.08h-1.54l-.49,1.08-.98-1.08h-1.54l-.49,1.08-.98-1.08h-1.54l-.49,1.08-.98-1.08h-1.54l-.49,1.08-.98-1.08h-1.54l-.49,1.08-.98-1.08h-1.54l-.49,1.08-.98-1.08h-1.54l-.49,1.08-.98-1.08h-1.54l-.49,1.08-.98-1.08h-1.54l-.49,1.08-.98-1.08h-1.54l-.49,1.08-.98-1.08H507l-.49,1.08-.98-1.08h-1.54l-.49,1.08-.98-1.08h-1.54l-.49,1.08-.98-1.08h-1.54l-.49,1.08-.98-1.08H495l-.49,1.08-.98-1.08h-1.54l-.49,1.08-.98-1.08h-1.54l-.49,1.08-.98-1.08h-1.54l-.49,1.08-.98-1.08h-1.54l-.49,1.08-.98-1.08h-1.54l-.49,1.08-.98-1.08h-1.54l-.49,1.08-.98-1.08h-1.54l-.49,1.08-.98-1.08h-1.54l-.49,1.08-.98-1.08h-1.54l-.49,1.08-.98-1.08H465l-.49,1.08-.98-1.08h-1.54l-.49,1.08-.98-1.08h-1.54l-.49,1.08-.98-1.08h-1.54l-.49,1.08-.98-1.08h-1.54l-.49,1.08-.98-1.08h-1.54l-.49,1.08-.98-1.08h-1.54l-.49,1.08-.98-1.08h-1.54l-.49,1.08-.98-1.08h-1.54l-.49,1.08-.98-1.08h-1.54l-.49,1.08-.98-1.08h-1.54l-.49,1.08-.98-1.08h-1.54l-.49,1.08-.98-1.08h-1.54l-.49,1.08-.98-1.08H423l-.49,1.08-.98-1.08h-1.54l-.49,1.08-.98-1.08h-1.54l-.49,1.08-.98-1.08h-1.54l-.49,1.08-.98-1.08h-1.54l-.49,1.08-.98-1.08h-1.54l-.49,1.08-.98-1.08h-1.54l-.49,1.08-.98-1.08h-1.54l-.49,1.08-.98-1.08h-1.54l-.49,1.08-.98-1.08h-1.54l-.49,1.08-.98-1.08h-1.54l-.49,1.08-.98-1.08h-1.54l-.49,1.08-.98-1.08h-1.54l-.49,1.08-.98-1.08H381l-.49,1.08-.98-1.08h-1.54l-.49,1.08-.98-1.08h-1.54l-.49,1.08-.98-1.08h-1.54l-.49,1.08-.98-1.08h-1.54l-.49,1.08-.98-1.08h-1.54l-.49,1.08-.98-1.08h-1.54l-.49,1.08-.98-1.08h-1.54l-.49,1.08-.98-1.08h-1.54l-.49,1.08-.98-1.08h-1.54l-.49,1.08-.98-1.08h-1.54l-.49,1.08-.98-1.08h-1.54l-.49,1.08-.98-1.08h-1.54l-.49,1.08-.98-1.08H339l-.49,1.08-.98-1.08h-1.54l-.49,1.08-.98-1.08h-1.54l-.49,1.08-.98-1.08h-1.54l-.49,1.08-.98-1.08h-1.54l-.49,1.08-.98-1.08h-1.54l-.49,1.08-.98-1.08h-1.54l-.49,1.08-.98-1.08h-1.54l-.49,1.08-.98-1.08h-1.54l-.49,1.08-.98-1.08h-1.54l-.49,1.08-.98-1.08h-1.54l-.49,1.08-.98-1.08h-1.54l-.49,1.08-.98-1.08H297l-.49,1.08-.98-1.08h-1.54l-.49,1.08-.98-1.08h-1.54l-.49,1.08-.98-1.08h-1.54l-.49,1.08-.98-1.08h-1.54l-.49,1.08-.98-1.08h-1.54l-.49,1.08-.98-1.08h-1.54l-.49,1.08-.98-1.08h-1.54l-.49,1.08-.98-1.08h-1.54l-.49,1.08-.98-1.08h-1.54l-.49,1.08-.98-1.08h-1.54l-.49,1.08-.98-1.08h-1.54l-.49,1.08-.98-1.08H255l-.49,1.08-.98-1.08h-1.54l-.49,1.08-.98-1.08h-1.54l-.49,1.08-.98-1.08h-1.54l-.49,1.08-.98-1.08h-1.54l-.49,1.08-.98-1.08h-1.54l-.49,1.08-.98-1.08h-1.54l-.49,1.08-.98-1.08h-1.54l-.49,1.08-.98-1.08h-1.54l-.49,1.08-.98-1.08h-1.54l-.49,1.08-.98-1.08h-1.54l-.49,1.08-.98-1.08h-1.54l-.49,1.08-.98-1.08h-1.54l-.49,1.08-.98-1.08H213l-.49,1.08-.98-1.08h-1.54l-.49,1.08-.98-1.08h-1.54l-.49,1.08-.98-1.08h-1.54l-.49,1.08-.98-1.08h-1.54l-.49,1.08-.98-1.08h-1.54l-.49,1.08-.98-1.08h-1.54l-.49,1.08-.98-1.08h-1.54l-.49,1.08-.98-1.08h-1.54l-.49,1.08-.98-1.08h-1.54l-.49,1.08-.98-1.08h-1.54l-.49,1.08-.98-1.08h-1.54l-.49,1.08-.98-1.08h-1.54l-.49,1.08-.98-1.08H171l-.49,1.08-.98-1.08h-1.54l-.49,1.08-.98-1.08h-1.54l-.49,1.08-.98-1.08h-1.54l-.49,1.08-.98-1.08h-1.54l-.49,1.08-.98-1.08h-1.54l-.49,1.08-.98-1.08h-1.54l-.49,1.08-.98-1.08h-1.54l-.49,1.08-.98-1.08h-1.54l-.49,1.08-.98-1.08h-1.54l-.49,1.08-.98-1.08h-1.54l-.49,1.08-.98-1.08h-1.54l-.49,1.08-.98-1.08h-1.54l-.49,1.08-.98-1.08H129l-.49,1.08-.98-1.08h-1.54l-.49,1.08-.98-1.08h-1.54l-.49,1.08-.98-1.08h-1.54l-.49,1.08-.98-1.08h-1.54l-.49,1.08-.98-1.08h-1.54l-.49,1.08-.98-1.08h-1.54l-.49,1.08-.98-1.08h-1.54l-.49,1.08-.98-1.08h-1.54l-.49,1.08-.98-1.08h-1.54l-.49,1.08-.98-1.08h-1.54l-.49,1.08-.98-1.08h-1.54l-.49,1.08-.98-1.08h-1.54l-.49,1.08-.98-1.08H87l-.49,1.08-.98-1.08h-1.54l-.49,1.08-.98-1.08h-1.54l-.49,1.08-.98-1.08h-1.54l-.49,1.08-.98-1.08h-1.54l-.49,1.08-.98-1.08h-1.54l-.49,1.08-.98-1.08h-1.54l-.49,1.08-.98-1.08h-1.54l-.49,1.08-.98-1.08h-1.54l-.49,1.08-.98-1.08h-1.54l-.49,1.08-.98-1.08h-1.54l-.49,1.08-.98-1.08h-1.54l-.49,1.08-.98-1.08H45l-.49,1.08-.98-1.08h-1.54l-.49,1.08-.98-1.08H39l-.49,1.08L37.53,625.23H36l-.49,1.08-.98-1.08H33l-.49,1.08-.98-1.08H30l-.49,1.08-.98-1.08H27l-.49,1.08-.98-1.08H24l-.49,1.08-.98-1.08H21l-.49,1.08-.98-1.08H18l-.49,1.08-.98-1.08H15v2h631v-2Z" transform="translate(-246.40687 -234.19396)" fill="#3f3d56"/><path d="M770.15687,561.11208h-130a3.5,3.5,0,0,1-3.5-3.5v-26a3.5,3.5,0,0,1,3.5-3.5h130a3.5,3.5,0,0,1,3.5,3.5v26A3.5,3.5,0,0,1,770.15687,561.11208Z" transform="translate(-246.40687 -234.19396)" fill="#ccc"/><path d="M770.15687,641.11208h-130a3.5,3.5,0,0,1-3.5-3.5v-53a3.5,3.5,0,0,1,3.5-3.5h130a3.5,3.5,0,0,1,3.5,3.5v53A3.5,3.5,0,0,1,770.15687,641.11208Z" transform="translate(-246.40687 -234.19396)" fill="#ccc"/><path d="M770.15687,665.61208h-130a3.5,3.5,0,0,1,0-7h130a3.5,3.5,0,0,1,0,7Z" transform="translate(-246.40687 -234.19396)" fill="#ccc"/><polygon points="415.75 418.618 403.49 418.618 397.658 371.33 415.752 371.33 415.75 418.618" fill="#ffb7b7"/><path d="M665.52931,665.61208h-39.589V665.3028a15.40726,15.40726,0,0,1,15.40674-15.40674h.00095l24.18133.00095Z" transform="translate(-246.40687 -234.19396)" fill="#2f2e41"/><polygon points="513.75 418.618 501.49 418.618 495.658 371.33 513.752 371.33 513.75 418.618" fill="#ffb7b7"/><path d="M763.52931,665.61208h-39.589V665.3028a15.40726,15.40726,0,0,1,15.40674-15.40674h.00095l24.18133.00095Z" transform="translate(-246.40687 -234.19396)" fill="#2f2e41"/><path d="M723.75351,403.61208l-41.20166-11.71716L669.208,347.24938a11.63309,11.63309,0,0,0-17.827-5.89843h0a11.61632,11.61632,0,0,0-3.34668,14.16748l15.54907,33.33447,41.96874,31.02344,26.03321,2.59863-1.56348,21.86914-2.86523,12.173a4.50136,4.50136,0,0,0,3.86182,5.3916l7.73535,1.3916a4.49616,4.49616,0,0,0,5.30176-3.75489l2.83886-16.23925,5.67822-10.19794Z" transform="translate(-246.40687 -234.19396)" fill="#ffb7b7"/><path d="M806.56246,401.61208l28.86718-10.3418L816.239,358.36754a27.56947,27.56947,0,0,0-21.15234-16.71094l-5.56934-.95313L783.594,353.22974l11.93652,25.251.55,15.13134-5.89649,10.99414Z" transform="translate(-246.40687 -234.19396)" fill="#ffb7b7"/><circle cx="485.44429" cy="72.99227" r="25.5" fill="#ffb7b7"/><path d="M714.42962,380.61208a4.47483,4.47483,0,0,0,4.45556-3.70224l13.41406-67.79492a32.3797,32.3797,0,0,0-14.12011-33.49366,31.31652,31.31652,0,0,0-35.63769.43847l-5.3247,3.8623a32.12151,32.12151,0,0,0-12.28809,33.92431l11.623,45.563,34.37329,19.93261A4.43823,4.43823,0,0,0,714.42962,380.61208Z" transform="translate(-246.40687 -234.19396)" fill="#4169e1"/><polygon points="441.15 250.118 493.15 329.618 495.65 416.618 467.65 416.618 442.15 314.618 400.15 271.618 441.15 250.118" fill="#2f2e41"/><polygon points="576.15 255.618 561.65 308.618 544.65 416.618 512.65 416.618 521.15 285.618 576.15 255.618" fill="#2f2e41"/><path d="M722.648,311.80513c4.89522-9.60128,16.9866-12.28616,26.5879-7.39093,17.04492,8.68824,25.76709,23.76665,23.50561,30.86064l.98383,20.4563-47.17064-24.00135Z" transform="translate(-246.40687 -234.19396)" fill="#4169e1"/><path d="M750.06734,323.60422l2.08417-10.0061,8.96608-8.44616a5.3963,5.3963,0,0,0-2.76168-9.032h0a5.39627,5.39627,0,0,0-5.89771,4.44481l-1.25409,7.65893-6.10425,7.6555Z" transform="translate(-246.40687 -234.19396)" fill="#ffb7b7"/><path d="M740.01228,320.19555l-11.05426-1.89693a5.4189,5.4189,0,0,0-6.06286,3.84235v0a5.41886,5.41886,0,0,0,3.19092,6.43265l9.85062,3.90677Z" transform="translate(-246.40687 -234.19396)" fill="#ffb7b7"/><path d="M764.66009,289.57974c-7.89943-2.61328-16.13257-.5539-24.15154-.5539-2.05237-3.32626-7.31257-1.41455-8.71633,2.21079a9.05655,9.05655,0,0,0,.02224,5.43709c-2.71257,5.61984-4.94507,4.90553-9.39377,8.99124a12.8886,12.8886,0,0,0,7.28345,7.56215c1.91925-2.08731,3.75946-7.807,5.67875-9.89429,1.94183,2.24036,5.23,2.6353,7.772,1.37426,2.542-1.26108,4.29666-3.69714,5.35479-6.295,1.05818-2.59787,1.40319-5.39371,1.74829-8.14946C751.00159,288.01616,757.48236,287.22128,764.66009,289.57974Z" transform="translate(-246.40687 -234.19396)" fill="#2f2e41"/><path d="M788.12988,307.87891l-14.12793,12.335a4.50112,4.50112,0,0,1-6.64062-1.0459l-16.76172-25.59717a4.5011,4.5011,0,0,1,1.7666-6.48l14.12793-12.335a4.50112,4.50112,0,0,1,6.64062,1.0459l16.76172,25.59717A4.5011,4.5011,0,0,1,788.12988,307.87891Z" transform="translate(-246.40687 -234.19396)" fill="#3f3d56"/><path d="M779.41018,301.12036l-22.03857-19.469a4.50115,4.50115,0,0,1-.3003-6.35467l6.87159-7.78427a4.50114,4.50114,0,0,1,6.35467-.30029l22.03857,19.469a4.50112,4.50112,0,0,1,.30029,6.35465l-6.8716,7.78428A4.50113,4.50113,0,0,1,779.41018,301.12036Z" transform="translate(-246.40687 -234.19396)" fill="#4169e1"/><path d="M553.40948,272.33053c-8.26,12.72216-34.19026,11.92415-34.19026,11.92415s-6.45621-26.5553,1.80381-39.27746,34.19026-11.92415,34.19026-11.92415S561.66949,259.60836,553.40948,272.33053Z" transform="translate(-246.40687 -234.19396)" fill="#f2f2f2"/><path d="M493.40948,319.33053c-8.26,12.72216-34.19026,11.92415-34.19026,11.92415s-6.45621-26.5553,1.80381-39.27746,34.19026-11.92415,34.19026-11.92415S501.66949,306.60836,493.40948,319.33053Z" transform="translate(-246.40687 -234.19396)" fill="#f2f2f2"/><path d="M486.45236,413.64074c1.11219,16.2213-10.85542,30.38476-10.85542,30.38476s-13.97772-12.01739-15.08991-28.23869,10.85541-30.38475,10.85541-30.38475S485.34017,397.41944,486.45236,413.64074Z" transform="translate(-246.40687 -234.19396)" fill="#f2f2f2"/><path d="M412.45236,431.64074c1.11219,16.2213-10.85542,30.38476-10.85542,30.38476s-13.97772-12.01739-15.08991-28.23869,10.85541-30.38475,10.85541-30.38475S411.34017,415.41944,412.45236,431.64074Z" transform="translate(-246.40687 -234.19396)" fill="#f2f2f2"/><path d="M438.1881,543.27073l-4.69533-1.56511A169.8654,169.8654,0,0,0,437.82,518.62529a172.11507,172.11507,0,0,0-15.05365-71.3084l4.63858-1.73427a176.3526,176.3526,0,0,1,10.78315,75.04311Z" transform="translate(-246.40687 -234.19396)" fill="#3f3d56"/><path d="M408.1497,427.14367l-5.35172,2.17691c-13.27168-32.69042-42.66083-58.29396-77.42424-67.96621l1.79486-5.2788A118.08338,118.08338,0,0,1,408.1497,427.14367Z" transform="translate(-246.40687 -234.19396)" fill="#3f3d56"/><path d="M448.18666,542.94785l-5.35172,2.1769c-13.27157-32.69042-42.66072-58.293-77.42424-67.9662l1.79486-5.2788A118.08312,118.08312,0,0,1,448.18666,542.94785Z" transform="translate(-246.40687 -234.19396)" fill="#3f3d56"/><circle cx="97.91508" cy="127.00967" r="9" fill="#3f3d56"/><circle cx="126.56735" cy="243.82271" r="9" fill="#3f3d56"/><path d="M392.21151,480.17173a9,9,0,0,1-.92388-17.958l.1732-.00977c.27442-.01318.552-.01953.834-.01953a9.00161,9.00161,0,0,1-.08337,18,9.10446,9.10446,0,0,1-.92383-.0459A9.19287,9.19287,0,0,1,392.21151,480.17173Z" transform="translate(-246.40687 -234.19396)" fill="#3f3d56"/><path d="M438.71151,465.67173a9,9,0,0,1-.92388-17.958l.1732-.00977c.27539-.01318.552-.01953.834-.01953a9.00161,9.00161,0,0,1-.08337,18,9.1044,9.1044,0,0,1-.92383-.0459A9.19414,9.19414,0,0,1,438.71151,465.67173Z" transform="translate(-246.40687 -234.19396)" fill="#4169e1"/><path d="M354.71151,423.67173a9,9,0,0,1-.92388-17.958l.1732-.00977c.27539-.01367.552-.01953.834-.01953a9.00161,9.00161,0,0,1-.08337,18,9.08624,9.08624,0,0,1-.92383-.0459A9.19025,9.19025,0,0,1,354.71151,423.67173Z" transform="translate(-246.40687 -234.19396)" fill="#4169e1"/><path d="M368.715,346.5a9,9,0,0,1-.92388-17.958l.1732-.00977c.27442-.01367.552-.01953.834-.01953a9.00161,9.00161,0,0,1-.08337,18,9.10358,9.10358,0,0,1-.92383-.04639A9.18781,9.18781,0,0,1,368.715,346.5Z" transform="translate(-246.40687 -234.19396)" fill="#4169e1"/><circle cx="171.91508" cy="272.00967" r="9" fill="#3f3d56"/><path d="M336.7115,423.67173a9,9,0,0,1-.92387-17.958l.1732-.00977c.27539-.01367.552-.01953.834-.01953a9.00161,9.00161,0,0,1-.08338,18,9.10326,9.10326,0,0,1-.92382-.0459A9.19054,9.19054,0,0,1,336.7115,423.67173Z" transform="translate(-246.40687 -234.19396)" fill="#3f3d56"/><path d="M368.715,423.67173a9,9,0,0,1-.92388-17.958l.1732-.00977c.27442-.01367.552-.01953.834-.01953a9.00161,9.00161,0,0,1-.08337,18,9.10358,9.10358,0,0,1-.92383-.04639A9.18839,9.18839,0,0,1,368.715,423.67173Z" transform="translate(-246.40687 -234.19396)" fill="#3f3d56"/><circle cx="100.91508" cy="272.00967" r="9" fill="#3f3d56"/><ellipse cx="127.91508" cy="272.50967" rx="9" ry="8.5" fill="#3f3d56"/><ellipse cx="155.91508" cy="272.50967" rx="9" ry="8.5" fill="#3f3d56"/><path d="M425.7115,507.67173a9,9,0,0,1-.92387-17.958l.1732-.00977c.27539-.01318.552-.01953.834-.01953a9.00161,9.00161,0,0,1-.08338,18,9.10326,9.10326,0,0,1-.92382-.0459A9.19054,9.19054,0,0,1,425.7115,507.67173Z" transform="translate(-246.40687 -234.19396)" fill="#3f3d56"/><path d="M457.715,507.67173a9,9,0,0,1-.92388-17.958l.1732-.00977c.27442-.01318.552-.01953.834-.01953a9.00161,9.00161,0,0,1-.08337,18,9.10358,9.10358,0,0,1-.92383-.04639A9.18839,9.18839,0,0,1,457.715,507.67173Z" transform="translate(-246.40687 -234.19396)" fill="#3f3d56"/><path d="M486.7115,480.17173a9,9,0,0,1-.92387-17.958l.1732-.00977c.27442-.01367.552-.01953.834-.01953a9.00161,9.00161,0,0,1-.08338,18,9.10326,9.10326,0,0,1-.92382-.0459A9.19054,9.19054,0,0,1,486.7115,480.17173Z" transform="translate(-246.40687 -234.19396)" fill="#3f3d56"/><circle cx="185.91508" cy="243.00967" r="9" fill="#3f3d56"/><path d="M425.7115,423.67173a9,9,0,0,1-.92387-17.958l.1732-.00977c.27442-.01367.552-.01953.834-.01953a9.00161,9.00161,0,0,1-.08338,18,9.10326,9.10326,0,0,1-.92382-.0459A9.19054,9.19054,0,0,1,425.7115,423.67173Z" transform="translate(-246.40687 -234.19396)" fill="#4169e1"/><path d="M409.71151,346.5a9,9,0,0,1-.92388-17.958l.1732-.00977c.27539-.01367.552-.01953.834-.01953a9.00161,9.00161,0,0,1-.08337,18,9.1044,9.1044,0,0,1-.92383-.04639A9.19414,9.19414,0,0,1,409.71151,346.5Z" transform="translate(-246.40687 -234.19396)" fill="#3f3d56"/><path d="M444.715,346.5a9,9,0,0,1-.92388-17.958l.1732-.00977c.27442-.01367.552-.01953.834-.01953a9.00161,9.00161,0,0,1-.08337,18,9.10358,9.10358,0,0,1-.92383-.04639A9.18781,9.18781,0,0,1,444.715,346.5Z" transform="translate(-246.40687 -234.19396)" fill="#4169e1"/><path d="M464.715,346.5a9,9,0,0,1-.92388-17.958l.1732-.00977c.27442-.01367.552-.01953.834-.01953a9.00161,9.00161,0,0,1-.08337,18,9.08526,9.08526,0,0,1-.92383-.04639A9.18781,9.18781,0,0,1,464.715,346.5Z" transform="translate(-246.40687 -234.19396)" fill="#3f3d56"/><circle cx="227.91508" cy="127.00967" r="9" fill="#3f3d56"/><path d="M484.715,346.5a9,9,0,0,1-.92388-17.958l.1732-.00977c.27442-.01367.552-.01953.834-.01953a9.00161,9.00161,0,0,1-.08337,18,9.08526,9.08526,0,0,1-.92383-.04639A9.18781,9.18781,0,0,1,484.715,346.5Z" transform="translate(-246.40687 -234.19396)" fill="#3f3d56"/><path d="M457.715,423.67173a9,9,0,0,1-.92388-17.958l.1732-.00977c.27442-.01367.552-.01953.834-.01953a9.00161,9.00161,0,0,1-.08337,18,9.10358,9.10358,0,0,1-.92383-.04639A9.18839,9.18839,0,0,1,457.715,423.67173Z" transform="translate(-246.40687 -234.19396)" fill="#3f3d56"/><circle cx="227.91508" cy="186.00967" r="9" fill="#3f3d56"/><circle cx="227.91508" cy="214.00967" r="9" fill="#3f3d56"/><path d="M499.88663,461.408l-44.46526,45.85608L409.71151,462.713l-2.58984,1.978a118.14013,118.14013,0,0,0,46.5459,47.89872l1.7641-5.24854c-.23858-.15182-.47809-.30426-.71398-.46075l45.81371-46.21692Z" transform="translate(-246.40687 -234.19396)" fill="#3f3d56"/><path d="M390.47646,462.86768a118.51722,118.51722,0,0,0,14.88593,24.568l2.60181-1.96161a116.56711,116.56711,0,0,1-14.63146-24.16517Z" transform="translate(-246.40687 -234.19396)" fill="#3f3d56"/><path d="M364.00195,388.48145c-2.11438-11.56868-2.02526-23.29073,2.11719-34.1709l-4.63868-1.73437c-4.38908,11.37207-4.54589,23.62854-2.34472,35.70117Z" transform="translate(-246.40687 -234.19396)" fill="#3f3d56"/><path d="M377.83466,335.22173a97.96633,97.96633,0,0,0-8.11841,20.54741l4.63861,1.73438a93.56353,93.56353,0,0,1,7.74072-19.57032Z" transform="translate(-246.40687 -234.19396)" fill="#3f3d56"/><rect x="124.15687" y="431.61208" width="2" height="24" fill="#3f3d56"/><rect x="246.40687" y="646.61208" width="2" height="24" transform="translate(-645.53372 152.81002) rotate(-90)" fill="#3f3d56"/><rect x="294.15687" y="431.61208" width="2" height="24" fill="#3f3d56"/><rect x="416.40687" y="646.61208" width="2" height="24" transform="translate(-475.53372 322.81002) rotate(-90)" fill="#3f3d56"/><circle cx="125.15687" cy="431.61208" r="14" fill="#4169e1"/><circle cx="295.15687" cy="431.61208" r="14" fill="#4169e1"/><path d="M648.90687,515.30613c-38.8773,0-70.5-31.6227-70.5-70.5s31.6227-70.5,70.5-70.5,70.5,31.6227,70.5,70.5S687.78416,515.30613,648.90687,515.30613Zm0-139c-37.77246,0-68.5,30.72754-68.5,68.5s30.72754,68.5,68.5,68.5,68.5-30.72754,68.5-68.5S686.68178,376.30613,648.90687,376.30613Z" transform="translate(-246.40687 -234.19396)" fill="#3f3d56"/><path d="M650.40687,457.80613h-32a8,8,0,0,1,0-16h32a8,8,0,0,1,0,16Z" transform="translate(-246.40687 -234.19396)" fill="#4169e1"/><path d="M650.40687,417.80613h-32a8,8,0,0,1,0-16h32a8,8,0,0,1,0,16Z" transform="translate(-246.40687 -234.19396)" fill="#4169e1"/><path d="M650.40687,377.80613h-32a8,8,0,0,1,0-16h32a8,8,0,0,1,0,16Z" transform="translate(-246.40687 -234.19396)" fill="#4169e1"/><path d="M731.40687,485.80613h-32a8,8,0,0,1,0-16h32a8,8,0,0,1,0,16Z" transform="translate(-246.40687 -234.19396)" fill="#e6e6e6"/><path d="M731.40687,447.80613h-32a8,8,0,0,1,0-16h32a8,8,0,0,1,0,16Z" transform="translate(-246.40687 -234.19396)" fill="#e6e6e6"/><path d="M731.40687,409.80613h-32a8,8,0,0,1,0-16h32a8,8,0,0,1,0,16Z" transform="translate(-246.40687 -234.19396)" fill="#e6e6e6"/><path d="M567.40687,485.80613h-32a8,8,0,0,1,0-16h32a8,8,0,0,1,0,16Z" transform="translate(-246.40687 -234.19396)" fill="#e6e6e6"/><path d="M567.40687,447.80613h-32a8,8,0,0,1,0-16h32a8,8,0,0,1,0,16Z" transform="translate(-246.40687 -234.19396)" fill="#e6e6e6"/><path d="M567.40687,409.80613h-32a8,8,0,0,1,0-16h32a8,8,0,0,1,0,16Z" transform="translate(-246.40687 -234.19396)" fill="#e6e6e6"/><path d="M650.40687,485.80613h-32a8,8,0,0,1,0-16h32a8,8,0,0,1,0,16Z" transform="translate(-246.40687 -234.19396)" fill="#4169e1"/></svg>