<svg xmlns="http://www.w3.org/2000/svg" viewBox="0 0 64 64"><path d="M61.55,19.29c-1.63-4.44-5.39-7.95-9.93-9.23-11.45-3.5-27.99,1.37-38.67,7.05-.89.47-1.73.97-2.51,1.48C5.31,22.03,1.9,26.65.81,32.11c-.87,4.4.51,8.83,3.62,11.71,1.76,1.63,4.05,2.61,6.49,2.78-1.16,2.66-3.77,10.06-.68,14.71,1.88,2.82,5.11,3.51,9.47,2.11.14-.03.27-.09.38-.17h.01c.09-.06.14-.14.23-.22,1.36-.15,1.55-1.99.18-2.35-1.51-.4-2.87-1.03-3.68-1.97v-.01c-.07-.08-.13-.16-.19-.24-2.34-3.39-.41-9.58.49-11.7.06-.14.09-.29.09-.43v-.05c.01-.12-.01-.2-.03-.32-.04-.28-.13-.53-.31-.67-1.38-1.1-9.69.26-10.92-7.42-.95-5.99,2.13-9.39,6.36-12.43.84-.61,1.73-1.19,2.67-1.75C23.13,20.02,33.2,15.9,42.51,15.1c3.27-.28,6.52-.13,9.4.76.61.19,1.2.42,1.76.71,3.3,1.72,5.42,5.05,5.62,8.8.35,6.74-4.65,10.58-10.01,12.62-.13.06-.22.1-.31.14h-.03c-.31.1-.55.71-.44,1.13.01,0,.01.01.02.01.02.04.03.07.05.11.17.28.49.48.87.52.11.01.21.02.31.02h.03c.28,0,.56-.06.82-.19,4.86-2.41,8.67-5.89,10.39-11.22.93-2.85.95-6.07.06-8.77z" style="fill: #1c3aa9;"></path><path d="M39.1,42.41c.11-.16.24-.32.4-.51h.01c.11-.14.2-.27.28-.37.44-.58.6-1.3.44-1.97-.14-.68-.59-1.27-1.21-1.59-.2-.1-.41-.18-.63-.23-.05-.01-.1-.03-.16-.04h-.01c-.74-.18-1.54.04-2.05.57l-.26.35h-.01c-.12.16-.24.33-.35.5-1.2,2.1-1.77,4.55-1.63,7.11.08,1.22.31,2.48.73,3.73.43,1.33,1.12,2.7,2.15,4.07,1.97,2.57,4.13,3.76,6.11,3.47.13-.02.25-.06.36-.11.63-.16,1.16-.6,1.44-1.2.02-.05.04-.09.06-.14.21-.57.2-1.2-.02-1.74v-.01c-.09-.23-.21-.42-.35-.58l-.01-.01c-.06-.07-.13-.12-.2-.18-.4-.32-.94-.44-1.45-.36-.68.08-1.09.45-1.4.8-.07-.08-.14-.17-.2-.26l-.03-.04c-.19-.3-.38-.62-.56-.97-.49-.94-.88-1.96-1.13-3.14-.36-1.66-.34-3.56.68-7.65zm8.31,7.78c.01.11.03.23.04.34.02.14.04.28.06.42h.01c.2,1.38.51,2.64.91,3.78.44,1.25.93,2.17,1.43,2.82.09.12.18.23.27.33.1.05.23.08.38.07.32-.03.65-.23.93-.55v-.01c.13-.16.24-.34.32-.54.16-.4.16-.81.01-1.15v-.01c-.09-.19-.23-.33-.4-.4-.05-.03-.1-.05-.15-.06-.32-.1-.66-.01-.92.22-.02-.03-.04-.07-.07-.1-.11-.21-.22-.47-.33-.77-.09-.22-.17-.47-.25-.74-.24-.79-.47-1.76-.67-2.93v-.01c-.06-.36-.1-.68-.13-.97.1-.72-.27-1.51-.97-1.94-.03-.01-.05-.03-.08-.05l-.01-.01c-.19-.11-.4-.19-.62-.23-.05-.01-.11-.03-.16-.04h-.01c-.16-.03-.32-.05-.47-.05-.85,0-1.59.59-1.82,1.41l.01.42c.01.27.03.55.06.83z" style="fill: #4285f4;"></path><path d="M50.57,12.27C46.03,10.98,40.99,11.13,36,12.1c-9.32.8-19.38,4.92-27.91,9.88-.95.56-1.84,1.14-2.67,1.75-4.23,3.04-7.31,6.44-6.36,12.43,1.23,7.68,9.54,6.32,10.92,7.42.18.14.27.39.31.67-.61,1.99-3.85,12.62,3.68,16.87.84.47,1.78.81,2.79.97-1.16,2.66-3.77,10.06-.68,14.71,1.88,2.82,5.11,3.51,9.47,2.11.14-.03.27-.09.38-.17h.01c2.04-1.15,1.65-4.22,1.65-4.22-1.51-.4-2.87-1.03-3.68-1.97v-.01c-2.96-3.43-.04-11.93.4-12.54-1.38-1.1-9.69.26-10.92-7.42-1.76-11.07,9.03-14.18,9.03-14.18-11.57-5.3-3.18-19.06,30.16-19.26.18.25.36.51.52.77l.12.21c-.02-.08-.04-.15-.07-.23-.03-.07-.07-.14-.1-.21-.15-.28-.3-.54-.48-.8-1.91-3.07-5.11-5.33-8.82-6.17v-.01c-11.33-2.13-11.67,6.31-11.67,6.31-21.41,6.25-18.2,13.69-18.2,13.69-5.8,6.08-4.43,13.01-4.43,13.01-1.81-1.1-1.83-7.29-.73-11.02-1.69,2.12-2.77,4.57-3.17,7.32-.87,4.4.51,8.83,3.62,11.71,1.76,1.63,4.05,2.61,6.49,2.78-1.16,2.66-3.77,10.06-.68,14.71,1.88,2.82,5.11,3.51,9.47,2.11.14-.03.27-.09.38-.17h.01c.09-.06.14-.14.23-.22,1.36-.15,1.55-1.99.18-2.35-1.51-.4-2.87-1.03-3.68-1.97v-.01c-.07-.08-.13-.16-.19-.24-2.34-3.39-.41-9.58.49-11.7.06-.14.09-.29.09-.43v-.05c.01-.12-.01-.2-.03-.32-.04-.28-.13-.53-.31-.67-1.38-1.1-9.69.26-10.92-7.42-.95-5.99,2.13-9.39,6.36-12.43.84-.61,1.73-1.19,2.67-1.75C23.13,20.02,33.2,15.9,42.51,15.1c3.27-.28,6.52-.13,9.4.76.61.19,1.2.42,1.76.71,3.3,1.72,5.42,5.05,5.62,8.8.35,6.74-4.65,10.58-10.01,12.62-.13.06-.22.1-.31.14h-.03c-.31.1-.55.71-.44,1.13.01,0,.01.01.02.01.02.04.03.07.05.11.17.28.49.48.87.52.11.01.21.02.31.02h.03c.28,0,.56-.06.82-.19,4.86-2.41,8.67-5.89,10.39-11.22.93-2.85.95-6.07.06-8.77-1.63-4.45-5.39-7.95-9.93-9.24z" style="fill: none;"></path><path d="M30.08,38.42c.04-.06.08-.12.12-.18,1.01-1.4,1.06-3.28.12-4.74-.38-.62-.73-1.2-1.04-1.74-.15-.25-.28-.5-.4-.74.02-.02.04-.05.06-.07.82-1.06,2.03-1.77,3.46-1.91.07,0,.14,0,.2-.01h.01c1.78-.08,3.3.72,4.13,2.04h.01c.28.43.72.76,1.23.9h.01c.08.02.16.03.24.04.07.01.13.02.2.02h.02c.19.01.37,0,.54-.04.48-.1.97-.48,1.02-1.06v-.01c.02-.19-.03-.38-.12-.56h-.01c-1.49-2.77-4.46-4.57-7.74-4.33-2.95.17-5.39,1.98-6.56,4.53-1.69.53-3.12,1.58-4.15,3.02-.05.07-.1.14-.15.21-1.21,1.97-1.53,4.45-.82,6.71.73,2.31,2.48,4.11,4.7,4.81.29.1.59.17.9.22.21.03.42.06.63.07.06,0,.13,0,.19.01h.01c1.82.03,3.49-.59,4.79-1.64l-.1.1c.32-.25.63-.53.93-.84,1.48-1.51,2.32-3.61,2.32-5.89,0-.33-.02-.66-.06-.98v-.01c-.19.1-.4.18-.61.24-.07.02-.15.04-.23.05-.09.03-.18.05-.28.06-.17.02-.34.03-.51.01-.29-.03-.58-.12-.85-.27h-.01c-1.13-.58-1.5-1.95-.84-3.02z" style="fill: #e33629;"></path><path d="M28.09,40.19c-.32-.23-.78-.5-1.3-.69-.89-.32-1.7-.38-2.44-.07-.67.34-1.19.99-1.49,1.82l-.03.05c-.31.83-.35,1.59-.15,2.19.2.59.61,1.04,1.21,1.32.2.09.42.17.64.22.69.17,1.48.17,2.25-.17.52-.23.96-.57,1.36-.84.14-.1.28-.18.41-.25.13-.06.25-.1.37-.11h.01c.24-.03.47.06.67.25.1.1.19.22.27.37.2.37.27.86.13,1.36-.13.51-.46.96-.87,1.29-.83.68-1.92,1.11-3.26,1.11-.4,0-.82-.03-1.26-.1-.38-.06-.79-.14-1.2-.26-.83-.22-1.65-.55-2.41-.99h-.01c-.85-.5-1.62-1.13-2.28-1.91-1.41-1.65-2.4-3.92-2.72-6.93-.2-1.82.1-3.64.89-5.29,1.33-2.76,3.88-4.79,6.71-5.48.52-.13,1.06-.22,1.61-.27.54-.05,1.08-.06,1.62-.04.7.04,1.38.15,2.03.35,1.51.45,2.83,1.32,3.78,2.49l.01.01c.98,1.2,1.63,2.67,1.86,4.31.06.41.09.84.09,1.27,0,3-.82,5.73-2.43,8.06-1.71,2.47-4.13,4.38-7.17,5.48v.01c-.92.32-1.83.56-2.75.71-.19.03-.39.06-.58.08-2.44.32-4.93-.14-7.02-1.35-2.04-1.18-3.61-3.08-4.41-5.3-.86-2.41-.81-5.07.13-7.3.05-.1.09-.2.14-.3.96-1.95,2.6-3.47,4.61-4.35h.01c-.26,1.7-.34,3.42-.25,5.09.09.85.25,1.67.5,2.43.07.23.15.46.25.68.28.65.65,1.25,1.1,1.76.35.42.76.78,1.2,1.06,1.01.67,2.23.97,3.58.66.53-.14,1.01-.33,1.43-.6.5-.3.93-.69,1.29-1.17.29-.39.53-.82.72-1.3-.03.05-.05.09-.08.14-.05.09-.1.17-.16.25h-.01c-.34.48-.75.87-1.2,1.16-.45.28-.95.47-1.47.56h-.01c-.42.08-.85.09-1.27.03v.01c-.42-.06-.83-.2-1.21-.39v-.01c-.9-.44-1.73-1.1-2.19-1.96-.03-.06-.07-.11-.1-.17-.33-.63-.51-1.36-.56-2.17v-.01c-.06-1.13.2-2.4.73-3.76l.01-.02c.39-.97.8-1.79,1.24-2.48.32-.48.65-.89.97-1.22.17-.17.33-.33.49-.47.33-.28.63-.51.91-.68.16-.1.31-.18.45-.25.29-.14.53-.21.7-.23h.01c.32-.03.64.13.82.41.08.12.13.25.14.4v.01c.03.34-.13.72-.47.98-.01.01-.03.03-.05.04-.24.18-.64.42-1.12.67-.47.24-1.01.5-1.58.79s-1.17.6-1.75.97c-.35.22-.69.45-1.01.72-.25.2-.49.43-.71.67-.24.25-.45.53-.65.83-.16.25-.32.51-.46.78-.49.96-.83,2.05-1.01,3.26-.15.97-.19,2.03-.11,3.15.31,4.38,2.92,7.15,5.52,7.92.35.1.69.17,1.03.23.24.04.48.07.72.1.27.03.54.04.81.04,2.79,0,5.32-1.41,7-3.83h.01c1.61-2.36,2.65-5.32,2.78-8.54-.77.35-1.72.34-2.39-.2z" style="fill: #fab906;"></path><path d="M61.55,19.29c-1.63-4.44-5.39-7.95-9.93-9.23-4.57-1.3-9.66-1.12-14.68-.14-9.31.8-19.38,4.92-27.91,9.88-.95.56-1.84,1.14-2.67,1.75-4.23,3.04-7.31,6.44-6.36,12.43,1.23,7.68,9.54,6.32,10.92,7.42.18.14.27.39.31.67.02.12.04.2.03.32v.05c0,.14-.03.29-.09.43-.9,2.12-2.83,8.31-.49,11.7.06.08.12.16.19.24v.01c.81.94,2.17,1.57,3.68,1.97,1.37.36,1.18,2.2-.18,2.35-.09.08-.14.16-.23.22h-.01c-.11.08-.24.14-.38.17-4.36,1.4-7.59.71-9.47-2.11-3.09-4.65-.48-12.05.68-14.71-2.44-.17-4.73-1.15-6.49-2.78-3.11-2.88-4.49-7.31-3.62-11.71,1.09-5.46,4.5-10.08,9.63-13.52.78-.51,1.62-1.01,2.51-1.48,10.68-5.68,27.22-10.55,38.67-7.05,4.54,1.28,8.3,4.79,9.93,9.23.89,2.7.87,5.92-.06,8.77-1.72,5.33-5.53,8.81-10.39,11.22-.26.13-.54.19-.82.19h-.03c-.1,0-.2-.01-.31-.02-.38-.04-.7-.24-.87-.52-.02-.04-.03-.07-.05-.11-.01,0-.01-.01-.02-.01-.11-.42.13-1.03.44-1.13h.03c.09-.04.18-.08.31-.14,5.36-2.04,10.36-5.88,10.01-12.62-.2-3.75-2.32-7.08-5.62-8.8-.56-.29-1.15-.52-1.76-.71-4.99-1.54-13.01-1.12-21.68,1.52-8.39,2.56-15.58,6.76-18.33,10.44-2.91,3.12-4.27,6.77-3.05,10.29,1.22,6.89,8.35,6.31,10.35,7.05-.71,2.19-3.2,7.59-2.15,10.57.14.38.27.61.29.66.03.05.05.09.08.14.24.42.55.74.89.94.2.13.42.22.65.26.13.03.27.04.41.04,1.17,0,2.25-.97,2.15-2.09.07-.93.04-1.78-.05-2.5-.01-.1-.03-.19-.04-.28-.33-1.84-1.13-2.73-1.46-2.99-.25-.32-.51-.63-.77-.92-.37-.61-.49-1.16-.21-1.5.25-.29.63-.28,1.02-.15.04.01.07.02.11.04h.01c.33.13.64.33.94.55.14.12.28.23.41.34.3.29.59.58.86.89.28.3.53.62.78.95.67.91,1.03,1.75.71,2.62-.09.27-.22.53-.38.78-.14.67.28,1.25.84,1.47h.01c.43.16.87.02,1.19-.35.03-.03.05-.07.08-.1.41-.57.71-1.25.82-2.14h.01c.03-.23.05-.47.05-.73,0-.98-.24-2.1-.97-3.46-.15-.28-.33-.58-.54-.88-.52-.79-1.17-1.62-1.81-2.47-.32-.42-.63-.84-.92-1.27-1.41-2.06-1.92-3.99-1.48-5.95,0-.01,0-.01,0-.02.91-4.44,6.47-9.36,14.42-13.36,8.65-3.9,16.63-5.76,21.21-5.27,1.24.08,2.43.41,3.56.79,3.29,1.26,5.81,4.09,6.89,7.38.74,2.59.54,5.56-.54,8.25-1.08,2.67-3.08,4.92-5.78,6.46,0,0-.01,0-.01.01-.08.05-.16.09-.25.14-.45.24-.93.47-1.45.69h-.01c.02,0,.03-.01.05-.01-.02,0-.03.01-.05.01-7.11,2.98-16.11,3.85-24.13,2.33-1.1-.24-1.83,1.07-1.22,1.96v.01c.08.11.15.23.23.34.09.12.19.23.3.34.16.17.33.33.51.47,0,0,0,.01.01.01,2.65,2.35,6.35,3.24,10.08,2.63,7.13-1.15,14.55-7.56,15.01-7.97.36-.26.7-.54,1.02-.84,3.11-2.88,4.49-7.31,3.62-11.71-.87-5.46-4.5-10.08-9.63-13.52-.78-.51-1.62-1.01-2.51-1.48a10.28,10.28,0,0,0-1.37-.68c3.29,1.26,5.81,4.09,6.89,7.38.74,2.59.54,5.56-.54,8.25-1.08,2.67-3.08,4.92-5.78,6.46,0,0-.01,0-.01.01-.08.05-.16.09-.25.14-.45.24-.93.47-1.45.69h-.01c.02,0,.03-.01.05-.01-.02,0-.03.01-.05.01-7.11,2.98-16.11,3.85-24.13,2.33-1.1-.24-1.83,1.07-1.22,1.96v.01c.08.11.15.23.23.34.09.12.19.23.3.34.16.17.33.33.51.47,0,0,0,.01.01.01,2.65,2.35,6.35,3.24,10.08,2.63,7.13-1.15,14.55-7.56,15.01-7.97.36-.26.7-.54,1.02-.84,4.59-4.24,5.11-9.36,4.87-12.97.19,1.33.32,2.72.32,4.17,0,11.97-6.6,21.68-11.01,25.44-.67.6-1.35,1.15-2.05,1.66-1.15.86-2.35,1.61-3.63,2.31-2.03,1.1-3.96,1.95-5.84,2.63v.01c-9.24,3.31-17.75,2.63-24.23-2.12-7.56-5.56-9.3-12.85-9.33-13h.01c0-.05-.01-.09-.01-.14-.01-.06-.02-.11-.03-.17-.01-.13-.03-.26-.04-.39-.1-1.26-.13-2.57-.08-3.93.02-.76.09-1.53.19-2.32.13-.99.32-2.01.58-3.05,1.25-4.95,3.75-10.51,7.47-16.32.07-.11.14-.23.22-.34,4.61-7.11,11.05-14.57,19.13-21.3,12.03-10.04,23.93-16.56,35.35-19.58,5.55-1.47,11.01-2.11,16.25-1.92,5.5.2,10.77,1.32,15.66,3.35,10.46,4.32,16.35,13.33,13.58,25.19Zm-32.43,41.35c1.44-.46,2.89-1.07,4.29-1.78.17.31.34.62.51.94Zm-3.39-6.81c-.16,0-.31-.01-.46-.01-.09-.01-.18-.03-.27-.05,0,0-.01,0-.01,0-.35-.07-.69-.2-1.01-.41-.09-.06-.17-.12-.25-.19-.94-.71-1.62-1.84-1.91-3.52l-.02-.11s0-.01,0-.02c-.04-.27-.07-.55-.08-.85-.02-.44-.01-.91.01-1.41.07-1.61.31-3.5.7-5.62.8.16,1.57.35,2.32.55.81.22,1.59.46,2.33.72-.64,3.43-1.01,6.45-1.09,8.36-.05.88.03,1.49.28,1.76.12.12.3.18.54.18h.01c.12,0,.26-.02.4-.05.07-.01.15-.03.22-.05,1.33-.32,2.82-1.15,4.4-2.25.92-.64,1.87-1.4,2.82-2.22.25-.22.5-.45.76-.68Zm4.67-18.51c-1.28-.2-2.55-.42-3.81-.68-1.07-.22-2.11-.48-3.1-.76-.78-.22-1.53-.45-2.24-.68,5.36-2.04,10.36-5.88,10.01-12.62-.2-3.75-2.32-7.08-5.62-8.8-.56-.29-1.15-.52-1.76-.71-4.99-1.54-13.01-1.12-21.68,1.52-8.39,2.56-15.58,6.76-18.33,10.44-2.91,3.12-4.27,6.77-3.05,10.29.4,2.24,1.35,3.85,2.51,5.01,1.29,1.3,2.95,2.17,4.48,2.82-2.03,3.26-3.68,6.41-4.96,9.37-1.41-1.1-9.96.26-11.2-7.42-.96-6.01,2.13-9.4,6.38-12.45.85-.61,1.74-1.19,2.68-1.75,8.54-4.97,18.63-9.1,27.98-9.9.28-.03.56-.05.84-.07.19,0,.38-.02.57-.03.32-.01.65-.01.97-.01,8.36,0,16.06,3.05,18.55,10.15,3.02,8.61-4.75,14.5-10.01,16.28Zm25.91-26.43c-1.09-3.29-3.61-6.12-6.89-7.38.46.22.91.44,1.37.68-.46-.24-.91-.46-1.37-.68-4.54-1.28-8.3-4.79-9.93-9.23-.18-.53-.33-1.06-.46-1.61,1.27-.26,2.55-.47,3.83-.61,5.24-.19,10.7.45,16.25,1.92,4.62,1.22,9.16,2.97,13.52,5.24-3.68-1.47-7.69-2.32-11.8-2.48-5.24-.19-10.7.45-16.25,1.92,11.42-3.02,23.32-9.54,35.35-19.58,8.08-6.73,14.52-14.19,19.13-21.3.08-.11.15-.23.22-.34,3.72-5.81,6.22-11.37,7.47-16.32.26-1.04.45-2.06.58-3.05.1-.79.17-1.56.19-2.32.05-1.36.02-2.67-.08-3.93-.01-.13-.03-.26-.04-.39-.01-.06-.02-.11-.03-.17,0-.05-.01-.09-.01-.14h.01c-.03-.15-.24-7.44-9.33-13-6.48-4.75-14.99-5.43-24.23-2.12v.01c-1.88.68-3.81,1.53-5.84,2.63-1.28.7-2.48,1.45-3.63,2.31-.7.51-1.38,1.06-2.05,1.66-4.41,3.76-11.01,13.47-11.01,25.44,0,1.45.13,2.84.32,4.17-.24-3.61.28-8.73,4.87-12.97.32-.3.66-.58,1.02-.84.46-.41,7.88-6.82,15.01-7.97,3.73-.61,7.43.28,10.08,2.63,0,0,0,.01.01.01.18.14.35.3.51.47.11.11.21.22.3.34.08.11.15.23.23.34v.01c.61.89-.12,2.2-1.22,1.96-8.02-1.52-17.02-.65-24.13,2.33-.02,0-.03.01-.05.01.02,0,.03-.01.05-.01h-.01c-.52.22-1,.45-1.45.69-.09.05-.17.09-.25.14,0,.01-.01.01-.01.01-2.7,1.54-4.7,3.79-5.78,6.46-1.08,2.69-1.28,5.66-.54,8.25Z" style="fill: none;"></path><path d="M15.39,46.27c.79,2.22,2.36,4.12,4.4,5.3,2.09,1.21,4.58,1.67,7.02,1.35.19-.02.39-.05.58-.08.92-.15,1.83-.39,2.74-.71v-.01c3.04-1.1,5.46-3.01,7.17-5.48,1.61-2.33,2.43-5.06,2.43-8.06,0-.43-.03-.86-.09-1.27-.23-1.64-.88-3.11-1.86-4.31l-.01-.01c-.95-1.17-2.27-2.04-3.78-2.49-.65-.2-1.33-.31-2.03-.35-.54-.02-1.08-.01-1.62.04-.55.05-1.09.14-1.61.27-2.83.69-5.38,2.72-6.71,5.48-.79,1.65-1.09,3.47-.89,5.29.32,3.01,1.31,5.28,2.72,6.93.66.78,1.43,1.41,2.28,1.91h.01c.76.44,1.58.77,2.41.99.41.12.82.2,1.2.26.44.07.86.1,1.26.1,1.34,0,2.43-.43,3.26-1.11.41-.33.74-.78.87-1.29.14-.5.07-.99-.13-1.36-.08-.15-.17-.27-.27-.37-.2-.19-.43-.28-.67-.25h-.01c-.12.01-.24.05-.37.11-.13.07-.27.15-.41.25-.4.27-.84.61-1.36.84-.77.34-1.56.34-2.25.17-.22-.05-.44-.13-.64-.22-.6-.28-1.01-.73-1.21-1.32-.2-.6-.16-1.36.15-2.19l.03-.05c.3-.83.82-1.48,1.49-1.82.74-.31,1.55-.25,2.44.07.52.19.98.46,1.3.69h.01c.38.19.79.33,1.21.39v-.01c.42.06.85.05,1.27-.03h.01c.52-.09,1.02-.28,1.47-.56.45-.29.86-.68,1.2-1.16h.01c.06-.08.11-.16.16-.25.03-.05.05-.09.08-.14-.19.48-.43.91-.72,1.3-.36.48-.79.87-1.29,1.17-.42.27-.9.46-1.43.6-1.35.31-2.57.01-3.58-.66-.44-.28-.85-.64-1.2-1.06-.45-.51-.82-1.11-1.1-1.76-.1-.22-.18-.45-.25-.68-.25-.76-.41-1.58-.5-2.43-.09-1.67-.01-3.39.25-5.09h-.01c-2.01.88-3.65,2.4-4.61,4.35-.05.1-.09.2-.14.3-.94,2.23-.99,4.89-.13,7.3Zm24.4-4.95c-.13,1.13-.35,2.22-.67,3.25-.16.49-.34,1-.54,1.48-.35.76-.75,1.47-1.21,2.13-.92,1.32-2.04,2.34-3.25,3.01-.16.09-.32.18-.48.26-.01.01-.03.01-.04.02-.37.17-.75.3-1.13.38l-.1.02c-.37.06-.74.1-1.11.09v-.01c-.29,0-.59-.03-.89-.09-.24-.05-.48-.11-.72-.2-1.97-.7-3.87-3.2-4.2-6.42-.21-2.01.17-4.1,1.08-6.02.47-.99,1.08-1.93,1.8-2.8,1.72-2.14,4.14-3.47,6.58-3.65.21-.02.42-.03.63-.03,4.1.14,7.3,3.86,7.22,8.56h-.01c-.02.1-.03.2-.06.3-.01.05-.03.1-.05.15-.03.08-.06.16-.1.24h-.01c-.03.05-.05.11-.08.16-.08.16-.17.32-.27.47-.15.23-.31.44-.49.63-.18.2-.38.38-.59.53-.4.3-.87.51-1.4.6-.12.02-.24.03-.36.03-.36,0-.69-.09-.98-.27-.49-.31-.78-.85-.79-1.46,0-.01,0-.01,0-.02,0-.09.01-.18.02-.26.03-.18.08-.35.17-.51.17-.3.44-.53.77-.64.22-.06.46-.08.7-.03-.23-.38-.53-.67-.91-.88-.13-.07-.26-.13-.4-.18-.16-.05-.32-.09-.48-.12-.13-.02-.27-.03-.41-.04-.35-.02-.71,0-1.08.05-.41.06-.82.17-1.24.32-1.79.66-3.41,2.18-4.3,4.08-.38.82-.63,1.72-.75,2.68-.06.58-.08,1.19-.01,1.82.25,2.36,1.8,4.33,3.36,4.8.07.03.15.05.23.06.17.03.34.05.52.05.12,0,.23-.02.35-.05.33-.09.64-.28.92-.57.13-.14.26-.3.36-.48.24-.39.39-.87.46-1.43v-.01c.04-.3.05-.63.04-.98Zm-11.06-10.4c-.02.27-.05.54-.07.81v.01h-.01c-.05.62-.07,1.24-.07,1.85,0,1.6.17,3.18.57,4.71.4,1.5,1.05,2.96,2.01,4.36.02.03.04.05.06.08.02.01.03.03.04.05.14.18.26.32.34.42.14.16.28.3.42.44.77-1.65,1.7-3.2,2.76-4.62v-.01c.18-.24.36-.47.55-.7,0,0,0-.01.01-.01.01-.02.03-.03.04-.04.09-.11.18-.22.28-.32-.08-.07-.16-.15-.24-.23-.19-.21-.37-.43-.55-.67-1.17-1.7-2.06-3.62-2.64-5.7-.15-.54-.28-1.09-.39-1.64-.07-.39-.13-.77-.18-1.16-.03-.19-.05-.38-.07-.57-.03-.27-.05-.55-.07-.83-.04-.66-.05-1.33-.04-2,.03-1.54.16-3.09.39-4.62-.58.38-1.14.8-1.68,1.25-.36.91-.65,1.89-.87,2.94-.17.83-.28,1.71-.34,2.62-.03.57-.04,1.15-.03,1.74.01.47.03.95.06,1.42Zm8.23-2.27c-.38.69-.78,1.41-1.21,2.16,0,.01-.01.02-.01.02-.44.77-.9,1.58-1.39,2.43-.75,1.33-1.56,2.77-2.43,4.28.48.49,1.01.87,1.6,1.14.36-.37.74-.71,1.14-1.03,2.07-1.62,4.42-2.55,6.75-2.67-.63-.51-1.32-.93-2.06-1.25-.43-.18-.87-.32-1.33-.43-.27-1.6-.86-3.18-1.75-4.72-.12-.2-.24-.39-.37-.59s-.28-.44-.43-.65c.17.26.33.52.49.78Zm-8.19-3.05c.07-.3.13-.59.18-.87.55-3.52.2-6.23-1.03-8.07-1.19-1.77-3.32-2.78-6.04-2.98-.08-.01-.16-.01-.24-.02-.14-.01-.28-.01-.42-.01s-.28,0-.43.01c-.07.01-.15.01-.22.01-.65.02-1.28.09-1.89.2-.51.09-1.01.21-1.49.36-.43.14-.84.3-1.23.47-.24.11-.47.22-.69.34-.29.15-.57.31-.84.48-1.12.71-2.07,1.58-2.82,2.61-.39.52-.73,1.09-1.01,1.69-.27.55-.5,1.14-.66,1.77-.43,1.57-.43,3.25.03,4.93.45,1.6,1.26,3.21,2.43,4.56,1.12,1.33,2.56,2.44,4.33,3.1.37.14.76.26,1.16.35.37.09.74.15,1.14.2l.12.01c.36.04.73.06,1.1.05v.01c.31-.01.61-.03.91-.08.38-.06.76-.16,1.13-.3.03-.01.06-.03.09-.04.27-.1.53-.22.78-.37,1.82-.99,2.93-3.15,2.93-5.62,0-.43-.04-.87-.12-1.31-.24-.25-.49-.49-.74-.71-.63-.56-1.28-1.07-1.94-1.51-.9-.61-1.74-1.17-2.53-1.67-.99-.63-1.9-1.18-2.69-1.63-1.66-.95-2.87-1.51-2.87-1.51v.01c-.72-.52-1.21-1.31-1.36-2.27-.12-.83.02-1.61.39-2.29.36-.67.93-1.23,1.65-1.6.07-.04.14-.07.22-.1h.01c.08-.02.16-.05.24-.07s.16-.04.24-.05c.1-.01.21-.02.31-.02h.01c.33,0,.67.07.99.21.32.13.61.33.87.58,0,.01.01.01.01.02.62.57,1.09,1.35,1.41,2.33.49.55,1,1.09,1.51,1.61.66.65,1.35,1.27,2.04,1.82,0,.01.01.01.01.01.59.46,1.18.86,1.78,1.21.53-1.49,1.15-2.93,1.88-4.3-.5-.22-1.01-.43-1.54-.62-.64-.24-1.29-.45-1.94-.64-.8-.24-1.6-.44-2.42-.6-.64-.13-1.27-.24-1.91-.32-.52-.06-1.04-.11-1.56-.14-.62-.04-1.23-.06-1.85-.05-.68.02-1.35.06-2.01.14-.66.08-1.31.19-1.94.34-.72.17-1.41.38-2.07.64-.21.08-.41.16-.61.25-.8.37-1.53.81-2.18,1.32C5.1,25.16,3.01,30.34,4.31,37.09c.66,3.42,1.94,5.66,3.84,6.67.15.08.31.16.48.22.05.02.09.04.14.05.01,0,.01,0,.02.01.25.08.5.13.75.16,1.51.22,3.07-.41,4.19-1.79h.01c.02-.02.03-.05.05-.07.09-.13.17-.26.25-.4.03-.05.05-.09.08-.14.07-.14.14-.28.2-.42.03-.07.06-.14.09-.21.06-.15.12-.3.17-.46.02-.07.05-.14.07-.21.05-.16.09-.32.13-.49.01-.06.03-.13.04-.19.04-.18.07-.35.09-.53.01-.05.01-.11.02-.16.02-.2.04-.4.04-.6v-.21c0-.06,0-.13-.01-.19-.01-.14-.02-.27-.04-.4-.01-.07-.01-.13-.02-.2-.03-.18-.07-.36-.11-.53-.01-.04-.02-.08-.03-.12-.05-.2-.11-.4-.18-.59-.03-.09-.06-.18-.1-.27-.05-.14-.11-.28-.17-.41-.02-.04-.04-.08-.05-.11-.2-.39-.44-.77-.72-1.14-.29-.38-.62-.74-.99-1.09-.24-.23-.5-.44-.77-.65-.84-.69-1.67-1.01-2.53-1.01-.16,0-.32.02-.49.03-.14.03-.29.07-.43.12-.23.09-.45.21-.65.36-.59.45-.97,1.19-.97,2.04v.25c.02.33.1.65.24.95.12.26.28.49.48.69.07.08.15.16.24.23.22.17.47.31.74.41.31.13.65.2.99.2h.03c.4,0,.7-.08.94-.29.02-.01.03-.03.05-.04.19-.16.34-.35.44-.57.1-.21.15-.43.15-.67,0-.23-.05-.46-.15-.67-.03-.06-.13-.21-.24-.36-.06-.07-.12-.14-.17-.2-.05-.05-.1-.1-.14-.14h-.01c-.14-.12-.26-.21-.38-.26-.07-.05-.14-.09-.21-.13-.05-.02-.1-.05-.15-.07-.12-.05-.24-.09-.36-.12-.02,0-.03-.01-.05-.01-.23-.05-.44-.06-.64-.03-.17.01-.34.05-.5.14-.31.14-.57.4-.73.74-.11.22-.16.46-.16.71,0,.13.01.25.04.38.06.26.18.53.41.73-.56-.09-1.05-.4-1.29-.83v-.01c-.1-.18-.15-.36-.16-.54,0-.03-.01-.06-.01-.09,0-.21.04-.42.13-.61h.01c.06-.15.15-.3.27-.42.1-.11.22-.19.33-.26.11-.08.19-.13.28-.17.32-.14.65-.17.98-.13.02,0,.03,0,.05,0,.27.05.55.14.82.27.09.04.19.09.28.14.31.17.63.38.95.63.1.08.2.16.29.24.48.43.94.93,1.34,1.47.2.26.38.53.54.81v.01c.18.32.34.66.46,1.01.05.14.09.28.13.43.03.11.06.23.09.34.02.09.03.17.04.26,0,.07.01.14.01.2,0,.06,0,.12-.01.17-.01.15-.04.3-.08.44-.03.11-.08.22-.14.33-.32.59-1.09.95-1.94.9-1.35-.02-2.67-.56-3.79-1.44-2.22-1.85-3.04-5.16-2.56-9.35.18-1.58.57-3.25,1.16-4.97.06-.17.12-.35.18-.53.25-.66.52-1.32.82-1.98.3-.64.62-1.27.97-1.9,0-.01.01-.02.01-.03.37-.63.75-1.25,1.16-1.86.5-.75,1.03-1.46,1.58-2.15.15-.19.3-.38.46-.56.3-.36.61-.72.92-1.06.78-.87,1.6-1.67,2.46-2.39.86-.73,1.75-1.39,2.66-1.97.94-.6,1.9-1.13,2.88-1.59.96-.44,1.93-.82,2.91-1.12.14-.04.27-.08.41-.11.16-.05.31-.09.47-.13.29-.08.57-.14.85-.2.24-.05.48-.1.73-.14.77-.13,1.54-.21,2.32-.24,0,0,.01,0,.01,0,.75-.04,1.5-.02,2.25.04.4.03.8.08,1.2.14.4.06.8.14,1.19.23.14.03.29.07.43.11.39.11.78.23,1.16.36.4.14.8.29,1.19.46.04.02.08.04.13.06.37.17.73.36,1.1.56l.21.12c.39.22.77.46,1.14.72.09.06.18.13.27.2.42.31.82.64,1.21.99.36.32.71.67,1.05,1.03.02.01.03.03.04.05.35.38.69.78,1.01,1.2.17.22.34.45.5.69.21.29.4.59.59.9.19.32.38.64.55.98.05.1.1.2.14.3.18.33.34.68.5,1.03,0,0,0,.01.01.01.29.64.54,1.31.78,2.01Zm-5.68,11.09c-.09-.08-.18-.15-.27-.22-.9-.73-1.85-1.41-2.83-2.03-.12-.08-.25-.16-.37-.23-.71-.42-1.44-.81-2.17-1.15-.1-.05-.19-.09-.29-.14-1.26-.59-2.5-1.03-3.7-1.34h-.01c-.14-.04-.28-.07-.41-.1-.58-.12-1.15-.2-1.7-.25-.03,0-.05,0-.08,0-.12-.01-.24-.02-.36-.02-.02,0-.05,0-.07,0-.21-.01-.41-.01-.61,0-.31.02-.61.05-.91.11-.01,0-.02,0-.03,0-.07.01-.13.03-.2.04-.01,0-.02,0-.02,0-.1.03-.21.06-.31.1-.4.13-.76.34-1.1.65-.03.02-.05.05-.08.07-.01.01-.02.02-.03.03-.27.29-.5.65-.7,1.1-.07.16-.13.34-.18.52-.06.21-.1.44-.12.68-.02.25-.01.51.03.8.01.04.01.09.02.13.04.2.08.42.15.65.01.04.03.08.04.12.09.26.2.54.35.85.06.11.12.22.18.34.01.01.01.02.02.03.02.04.04.08.07.12.12.19.25.39.4.59.02.02.03.05.05.07.15.2.31.41.48.61.43.5.93.98,1.5,1.41.01.01.02.02.03.02.06.04.11.09.17.13.04.03.09.07.13.1.5.36,1.07.69,1.67.97.07.03.14.06.21.09.04.01.07.03.11.04.04.01.08.03.11.04.01,0,.01,0,.02,0,.08.03.16.05.25.08h.01c.08.02.15.04.23.06.14.03.27.06.41.08.08.01.16.02.25.03.11.01.22.02.33.02.41.01.83-.04,1.22-.15.13-.04.26-.08.39-.14,0,0,.01,0,.01,0,.34-.15.65-.36.9-.64.03-.04.07-.08.1-.13.07-.1.14-.2.2-.31.01-.01.01-.02.02-.04.02-.05.05-.1.07-.15.16-.34.26-.72.28-1.13.01-.11.01-.23,0-.34-.01-.07-.03-.14-.04-.2,0-.01,0-.01,0-.02,0-.02-.01-.04-.01-.06-.06-.23-.15-.45-.28-.65-.05-.09-.1-.17-.16-.25-.03-.04-.06-.07-.09-.11-.03-.04-.06-.07-.1-.11-.07-.07-.15-.14-.23-.2-.06-.05-.13-.09-.2-.13-.09-.05-.17-.1-.26-.14-.15-.07-.3-.13-.46-.18-.02-.01-.04-.01-.06-.02-.05-.01-.1-.03-.15-.04-.17-.04-.33-.07-.5-.09-.05,0-.1,0-.14-.01-.26-.01-.51.01-.74.08-.28.08-.53.21-.73.42-.09.1-.17.21-.24.33,0,.01-.01.02-.01.03-.09.17-.15.35-.18.55-.01.07-.02.15-.02.23,0,.22.05.43.13.63.03.06.05.12.09.18.16.26.4.46.7.57-.31.45-.66.58-.97.54-.1-.01-.2-.04-.28-.08-.13-.06-.3-.17-.46-.31Z" style="fill: #34a853;"></path></svg>